<svg width="150" height="107" viewBox="0 0 150 107" fill="none" xmlns="http://www.w3.org/2000/svg">
<path d="M63.0255 58.9477C62.1307 58.0223 59.6594 54.861 58.5437 51.9881L53.8462 34.0588L65.9334 20.5442L97.3616 42.5221C93.7137 49.9753 88.8614 59.7574 88.0785 60.9141C87.2956 62.0709 79.3547 66.6978 77.677 66.6978C75.9994 66.6978 63.9202 59.8731 63.0255 58.9477Z" fill="#F0C6C2"/>
<path d="M50.7859 14.3753C58.0994 14.3753 64.7843 16.7995 68.3268 19.1646C68.3268 19.1646 62.6703 23.2148 60.5562 24.9591C58.4422 26.7033 53.2428 32.1134 53.2428 32.1134C53.9284 30.517 53.7383 21.5493 52.7285 17.4499C52.0897 14.8566 50.7859 14.3753 50.7859 14.3753Z" fill="#BA325B"/>
<path d="M54.4138 16.8585C60.1846 17.8636 63.1358 19.3942 65.8128 21.1759C65.8128 21.1759 61.5825 24.4726 59.9849 25.7866C58.9858 26.6084 57.5826 28.5068 56.6716 29.8137C56.3924 30.2391 56.0878 30.6893 55.7568 31.1672C55.7568 31.1672 56.1259 30.5965 56.6716 29.8137C61.1075 23.0554 59.1269 22.5605 54.4138 16.8585Z" fill="#6D251E"/>
<path d="M96.2094 10.8276C98.1292 16.5984 99.6376 26.7721 99.9233 30.6351L87.239 19.7557C91.01 15.676 96.2094 10.8276 96.2094 10.8276Z" fill="#BA325B"/>
<path d="M94.8609 14.6116C96.2965 18.9182 97.4244 26.5106 97.638 29.3934L88.1533 21.2744C90.9731 18.2298 94.8609 14.6116 94.8609 14.6116Z" fill="#6D251E"/>
<path d="M67.4696 18.6514C71.7548 16.4638 80.8738 15.766 90.3814 18.6514C99.8889 21.5368 103.808 42.1056 105.237 47.1313C106.665 52.1571 108.322 54.6006 108.322 54.6006C104.978 54.2376 103.09 53.5786 99.6946 51.4668C100.888 60.856 100.977 66.3045 99.6946 76.4775C99.1985 68.3166 98.3222 64.0916 93.6381 58.3847C92.4662 60.801 91.64 61.7416 89.1244 60.868C72.4338 54.712 69.1702 46.0889 63.4129 30.6542C57.9825 42.7168 56.9013 49.62 64.8985 62.6418C62.0145 60.7462 60.4063 59.4511 57.585 55.9013C57.9118 62.2547 58.7028 65.5193 60.6132 71.097C56.4632 67.1058 54.6519 64.5422 53.9283 58.3847C53.443 62.0503 53.5002 64.2191 53.9283 68.1997C52.5026 63.7279 51.9988 61.0914 52.2142 55.9013C49.062 59.4215 46.914 60.8063 42.6724 62.6418C48.6878 54.5168 50.0543 48.1377 52.2142 36.5077C49.378 37.966 44.5655 39.6472 43.1052 40.1455C42.9353 40.2287 42.7904 40.2785 42.6724 40.2918C42.6724 40.2918 42.8287 40.2399 43.1052 40.1455C46.4919 38.4877 59.7982 23.5498 67.4696 18.6514Z" fill="#BA325B"/>
<path d="M43.0728 62.2089C49.5136 55.0283 52.6042 50.837 55.4714 42.5196C53.5998 48.7254 53.2734 52.2694 55.4714 58.8386C54.4452 57.4437 53.8778 56.6527 52.2717 55.8823C48.174 59.9183 46.2341 61.0744 43.0728 62.2089Z" fill="#DB796F"/>
<path d="M70.4407 29.1568C70.5298 29.5432 70.6225 29.9207 70.7186 30.2895C72.2057 33.9531 79.1867 41.5391 80.0396 40.0362C77.7567 33.061 78.032 29.5143 80.7824 23.7171C80.1761 38.1635 84.2415 41.1945 94.838 42.6969C93.4534 44.0951 90.3885 46.5909 88.6271 46.1343C93.7337 51.3069 101.101 50.2081 99.6374 76.4583C98.8388 63.4504 94.9523 51.625 90.7813 56.0595C88.5971 45.5697 75.4722 48.5291 70.7186 30.2895C70.539 29.8471 70.4396 29.4619 70.4407 29.1568Z" fill="#DB796F"/>
<path d="M55.0492 80.5656H51.9455L51.4479 82.0345H49.3275L52.3364 73.7185H54.6819L57.6909 82.0345H55.5467L55.0492 80.5656ZM54.5279 79.0019L53.4973 75.9574L52.4786 79.0019H54.5279ZM65.738 73.7185L62.8594 79.2862V82.0345H60.8337V79.2862L57.9551 73.7185H60.2532L61.8643 77.2013L63.4635 73.7185H65.738ZM71.731 80.5656H68.6273L68.1297 82.0345H66.0093L69.0182 73.7185H71.3637L74.3727 82.0345H72.2285L71.731 80.5656ZM71.2097 79.0019L70.1791 75.9574L69.1603 79.0019H71.2097ZM82.7278 82.0345H80.7021L77.3141 76.9051V82.0345H75.2884V73.7185H77.3141L80.7021 78.8716V73.7185H82.7278V82.0345ZM89.3729 80.5656H86.2692L85.7717 82.0345H83.6512L86.6602 73.7185H89.0057L92.0146 82.0345H89.8705L89.3729 80.5656ZM88.8517 79.0019L87.8211 75.9574L86.8023 79.0019H88.8517Z" fill="black"/>
</svg>
