<svg width="41" height="45" viewBox="0 0 41 45" fill="none" xmlns="http://www.w3.org/2000/svg">
<g clip-path="url(#clip0)">
<path d="M20.4538 9.8362C19.9687 9.8362 19.5753 9.43981 19.5753 8.95064V4.24006C19.5753 3.75133 19.9683 3.35449 20.4538 3.35449C20.9388 3.35449 21.3323 3.75133 21.3323 4.24006V8.95064C21.3323 9.43981 20.9388 9.8362 20.4538 9.8362Z" fill="#78B9C8"/>
<path d="M22.5568 2.12003C22.5568 0.949041 21.6154 0 20.4538 0C19.2923 0 18.3508 0.949041 18.3508 2.12003C18.3508 3.29102 19.2923 4.24006 20.4538 4.24006C21.6154 4.24006 22.5568 3.29102 22.5568 2.12003Z" fill="#5B6160"/>
<path d="M20.4538 0C20.2408 0 20.0352 0.0324041 19.8416 0.0918857C20.7042 0.356445 21.3323 1.16389 21.3323 2.12003C21.3323 3.07617 20.7042 3.88406 19.8416 4.14817C20.0352 4.20765 20.2408 4.24006 20.4538 4.24006C21.6153 4.24006 22.5568 3.29102 22.5568 2.12003C22.5568 0.949041 21.6153 0 20.4538 0Z" fill="black"/>
<path d="M38.3785 8.95056H2.52905C1.40845 8.95056 0.5 9.92357 0.5 11.1234V35.2578C0.5 36.4577 1.40845 37.4307 2.52905 37.4307H15.515C15.8138 37.4307 16.1004 37.5505 16.3116 37.7636L19.6567 41.1358C20.0968 41.5793 20.8103 41.5793 21.2504 41.1358L24.596 37.7636C24.8072 37.5505 25.0938 37.4307 25.3926 37.4307H38.3785C39.4991 37.4307 40.4076 36.4577 40.4076 35.2578V11.1234C40.4076 9.92313 39.4991 8.95056 38.3785 8.95056Z" fill="#FF4100"/>
<path d="M14.1796 20.3995C14.1796 19.1775 13.1972 18.1871 11.9851 18.1871C10.7734 18.1871 9.79053 19.1775 9.79053 20.3995C9.79053 21.6215 10.7734 22.6118 11.9851 22.6118C13.1972 22.6118 14.1796 21.6215 14.1796 20.3995Z" fill="white"/>
<path d="M31.1167 20.3995C31.1167 19.1775 30.1343 18.1871 28.9221 18.1871C27.71 18.1871 26.7276 19.1775 26.7276 20.3995C26.7276 21.6215 27.71 22.6118 28.9221 22.6118C30.1343 22.6118 31.1167 21.6215 31.1167 20.3995Z" fill="white"/>
<path d="M20.4538 32.7895C18.5643 32.7895 16.7874 32.0473 15.4516 30.7005C15.1083 30.3547 15.1083 29.7941 15.4516 29.4479C15.7944 29.1025 16.3508 29.1025 16.6937 29.4479C17.6981 30.4608 19.0334 31.0183 20.4538 31.0183C21.8741 31.0183 23.2095 30.4608 24.2139 29.4479C24.5568 29.1025 25.1131 29.1025 25.456 29.4479C25.7993 29.7941 25.7993 30.3547 25.456 30.7005C24.1197 32.0473 22.3433 32.7895 20.4538 32.7895Z" fill="white"/>
</g>
<defs>
<clipPath id="clip0">
<rect width="40" height="45" fill="white" transform="translate(0.5)"/>
</clipPath>
</defs>
</svg>
