<svg width="150" height="107" viewBox="0 0 150 107" fill="none" xmlns="http://www.w3.org/2000/svg">
<path d="M48.2149 84.2617C48.2149 83.291 48.4249 82.4277 48.8449 81.6717C49.2649 80.9064 49.8483 80.3137 50.5949 79.8937C51.3509 79.4644 52.2049 79.2497 53.1569 79.2497C54.3236 79.2497 55.3223 79.5577 56.1529 80.1737C56.9836 80.7897 57.5389 81.6297 57.8189 82.6937H55.1869C54.9909 82.283 54.7109 81.9704 54.3469 81.7557C53.9923 81.541 53.5863 81.4337 53.1289 81.4337C52.3916 81.4337 51.7943 81.6904 51.3369 82.2037C50.8796 82.717 50.6509 83.403 50.6509 84.2617C50.6509 85.1204 50.8796 85.8064 51.3369 86.3197C51.7943 86.833 52.3916 87.0897 53.1289 87.0897C53.5863 87.0897 53.9923 86.9824 54.3469 86.7677C54.7109 86.553 54.9909 86.2404 55.1869 85.8297H57.8189C57.5389 86.8937 56.9836 87.7337 56.1529 88.3497C55.3223 88.9564 54.3236 89.2597 53.1569 89.2597C52.2049 89.2597 51.3509 89.0497 50.5949 88.6297C49.8483 88.2004 49.2649 87.6077 48.8449 86.8517C48.4249 86.0957 48.2149 85.2324 48.2149 84.2617ZM58.809 85.2697C58.809 84.467 58.9583 83.7624 59.257 83.1557C59.565 82.549 59.9803 82.0824 60.503 81.7557C61.0257 81.429 61.609 81.2657 62.253 81.2657C62.8037 81.2657 63.2843 81.3777 63.695 81.6017C64.115 81.8257 64.437 82.1197 64.661 82.4837V81.3777H67.055V89.1897H64.661V88.0837C64.4277 88.4477 64.101 88.7417 63.681 88.9657C63.2703 89.1897 62.7897 89.3017 62.239 89.3017C61.6043 89.3017 61.0257 89.1384 60.503 88.8117C59.9803 88.4757 59.565 88.0044 59.257 87.3977C58.9583 86.7817 58.809 86.0724 58.809 85.2697ZM64.661 85.2837C64.661 84.6864 64.493 84.215 64.157 83.8697C63.8303 83.5244 63.429 83.3517 62.953 83.3517C62.477 83.3517 62.071 83.5244 61.735 83.8697C61.4083 84.2057 61.245 84.6724 61.245 85.2697C61.245 85.867 61.4083 86.343 61.735 86.6977C62.071 87.043 62.477 87.2157 62.953 87.2157C63.429 87.2157 63.8303 87.043 64.157 86.6977C64.493 86.3524 64.661 85.881 64.661 85.2837ZM71.1809 82.6797C71.4609 82.2504 71.8109 81.9144 72.2309 81.6717C72.6509 81.4197 73.1176 81.2937 73.6309 81.2937V83.8277H72.9729C72.3756 83.8277 71.9276 83.9584 71.6289 84.2197C71.3303 84.4717 71.1809 84.9197 71.1809 85.5637V89.1897H68.7869V81.3777H71.1809V82.6797ZM77.1692 78.8297V89.1897H74.7752V78.8297H77.1692ZM87.8209 84.1497C88.3903 84.271 88.8476 84.5557 89.1929 85.0037C89.5383 85.4424 89.7109 85.9464 89.7109 86.5157C89.7109 87.337 89.4216 87.9904 88.8429 88.4757C88.2736 88.9517 87.4756 89.1897 86.4489 89.1897H81.8709V79.3617H86.2949C87.2936 79.3617 88.0729 79.5904 88.6329 80.0477C89.2023 80.505 89.4869 81.1257 89.4869 81.9097C89.4869 82.4884 89.3329 82.969 89.0249 83.3517C88.7263 83.7344 88.3249 84.0004 87.8209 84.1497ZM84.2649 83.3377H85.8329C86.2249 83.3377 86.5236 83.2537 86.7289 83.0857C86.9436 82.9084 87.0509 82.6517 87.0509 82.3157C87.0509 81.9797 86.9436 81.723 86.7289 81.5457C86.5236 81.3684 86.2249 81.2797 85.8329 81.2797H84.2649V83.3377ZM86.0289 87.2577C86.4303 87.2577 86.7383 87.169 86.9529 86.9917C87.1769 86.805 87.2889 86.539 87.2889 86.1937C87.2889 85.8484 87.1723 85.5777 86.9389 85.3817C86.7149 85.1857 86.4023 85.0877 86.0009 85.0877H84.2649V87.2577H86.0289ZM94.6554 89.3017C93.8901 89.3017 93.1994 89.1384 92.5834 88.8117C91.9768 88.485 91.4961 88.0184 91.1414 87.4117C90.7961 86.805 90.6234 86.0957 90.6234 85.2837C90.6234 84.481 90.8008 83.7764 91.1554 83.1697C91.5101 82.5537 91.9954 82.0824 92.6114 81.7557C93.2274 81.429 93.9181 81.2657 94.6834 81.2657C95.4488 81.2657 96.1394 81.429 96.7554 81.7557C97.3714 82.0824 97.8568 82.5537 98.2114 83.1697C98.5661 83.7764 98.7434 84.481 98.7434 85.2837C98.7434 86.0864 98.5614 86.7957 98.1974 87.4117C97.8428 88.0184 97.3528 88.485 96.7274 88.8117C96.1114 89.1384 95.4208 89.3017 94.6554 89.3017ZM94.6554 87.2297C95.1128 87.2297 95.5001 87.0617 95.8174 86.7257C96.1441 86.3897 96.3074 85.909 96.3074 85.2837C96.3074 84.6584 96.1488 84.1777 95.8314 83.8417C95.5234 83.5057 95.1408 83.3377 94.6834 83.3377C94.2168 83.3377 93.8294 83.5057 93.5214 83.8417C93.2134 84.1684 93.0594 84.649 93.0594 85.2837C93.0594 85.909 93.2088 86.3897 93.5074 86.7257C93.8154 87.0617 94.1981 87.2297 94.6554 87.2297ZM104.368 87.1597V89.1897H103.15C102.282 89.1897 101.605 88.9797 101.12 88.5597C100.634 88.1304 100.392 87.435 100.392 86.4737V83.3657H99.4395V81.3777H100.392V79.4737H102.786V81.3777H104.354V83.3657H102.786V86.5017C102.786 86.735 102.842 86.903 102.954 87.0057C103.066 87.1084 103.252 87.1597 103.514 87.1597H104.368Z" fill="#2A2D2C"/>
<path fill-rule="evenodd" clip-rule="evenodd" d="M57.0003 33.4746L63.2108 27.2641C63.6074 26.863 64.2519 26.863 64.6485 27.2641L76.0386 38.6515L87.318 27.3678C87.7146 26.9712 88.3591 26.9712 88.7557 27.3678L94.9662 33.5782C95.3628 33.9793 95.3628 34.6238 94.9617 35.0204L83.6899 46.2966L91.8293 54.4315C92.1313 54.7334 92.3025 55.1436 92.298 55.5672L92.3116 68.2495C92.3116 68.9751 91.4372 69.3402 90.9235 68.8264L76.0441 53.9515L76.0418 53.9538L76.0374 53.9493L61.1739 68.8219C60.6601 69.3357 59.7857 68.9751 59.7857 68.2495L59.7812 55.5897C59.7767 55.1661 59.948 54.756 60.25 54.454L68.3893 46.3012L57.0003 34.9122C56.6037 34.5156 56.6037 33.8712 57.0003 33.4746Z" fill="#22222A"/>
<path fill-rule="evenodd" clip-rule="evenodd" d="M69.3267 22.8248L76.0555 29.5536L82.8158 22.7933C83.307 22.302 83.307 21.5043 82.8158 21.0131L77.1957 15.393C76.5828 14.7801 75.5868 14.7801 74.9738 15.393L69.3267 21.0401C68.831 21.5358 68.831 22.3336 69.3267 22.8248ZM51.2948 39.1351L47.8064 42.6235C47.4234 43.0065 47.207 43.5248 47.207 44.0657V56.5271C47.207 57.2617 48.0949 57.6313 48.6177 57.1085L59.655 46.0712L52.7144 39.1306C52.3223 38.7475 51.6869 38.7475 51.2948 39.1351ZM92.4152 46.2786L99.3558 39.338C99.7479 38.9459 100.379 38.9459 100.771 39.338L104.295 42.8624C104.678 43.2455 104.895 43.7638 104.895 44.3046V56.7661C104.895 57.5007 104.002 57.8658 103.484 57.3475L92.4152 46.2786Z" fill="#262626"/>
</svg>
