<svg width="41" height="41" viewBox="0 0 41 41" fill="none" xmlns="http://www.w3.org/2000/svg">
<g clip-path="url(#clip0)">
<path d="M9.10666 15.5033H17.7441L20.5 19.6645L23.2559 15.5033H31.8933C34.1453 15.5033 35.9774 13.6693 35.9774 11.4149V4.08836C35.9774 1.83398 34.1453 0 31.8933 0H9.10666C6.85471 0 5.02255 1.83398 5.02255 4.08836V11.4149C5.02255 13.6693 6.85471 15.5033 9.10666 15.5033ZM23.8797 6.24578H26.2392V8.60809H23.8797V6.24578ZM19.3201 6.24578H21.6799V8.60809H19.3201V6.24578ZM14.7608 6.24578H17.1203V8.60809H14.7608V6.24578Z" fill="#43605E"/>
<path d="M7.0593 32.1873C3.16663 32.1873 0 35.3576 0 39.2542V41H11.0411V39.2542C11.0411 37.535 11.5013 35.9213 12.3046 34.5302C11.0117 33.0929 9.13921 32.1873 7.0593 32.1873Z" fill="#FF4100"/>
<path d="M20.5 32.1873C16.6076 32.1873 13.4407 35.3576 13.4407 39.2542V41H27.5596V39.2542C27.5596 35.3576 24.3926 32.1873 20.5 32.1873Z" fill="#FF4100"/>
<path d="M33.9408 32.1873C31.8609 32.1873 29.9887 33.0929 28.6958 34.5305C29.4991 35.9216 29.9593 37.5353 29.9593 39.2545V41H41V39.2545C41 35.3576 37.8334 32.1873 33.9408 32.1873Z" fill="#FF4100"/>
<path d="M11.4166 26.5168C11.4166 24.0484 9.4177 22.0474 6.9521 22.0474C4.48619 22.0474 2.4873 24.0484 2.4873 26.5168C2.4873 28.9851 4.48619 30.9861 6.9521 30.9861C9.4177 30.9861 11.4166 28.9851 11.4166 26.5168Z" fill="#FF4100"/>
<path d="M38.2976 26.5168C38.2976 24.0484 36.2991 22.0474 33.8331 22.0474C31.3675 22.0474 29.3687 24.0484 29.3687 26.5168C29.3687 28.9851 31.3675 30.9861 33.8331 30.9861C36.2991 30.9861 38.2976 28.9851 38.2976 26.5168Z" fill="#FF4100"/>
<path d="M24.9645 26.5168C24.9645 24.0484 22.9656 22.0474 20.5 22.0474C18.0344 22.0474 16.0355 24.0484 16.0355 26.5168C16.0355 28.9851 18.0344 30.9861 20.5 30.9861C22.9656 30.9861 24.9645 28.9851 24.9645 26.5168Z" fill="#FF4100"/>
</g>
<defs>
<clipPath id="clip0">
<rect width="41" height="41" fill="white"/>
</clipPath>
</defs>
</svg>
