<svg width="51" height="36" viewBox="0 0 51 36" fill="none" xmlns="http://www.w3.org/2000/svg">
<g clip-path="url(#clip0)">
<path d="M33.9421 26.1685V27.9387H40.932V26.1685H33.9421Z" fill="#FF4100"/>
<path d="M30.4475 29.7089C29.0001 29.7089 27.8267 30.8977 27.8267 32.3644V35.9048H47.0476V32.3644C47.0476 30.8977 45.8742 29.7089 44.4268 29.7089H30.4475Z" fill="#43605E"/>
<path d="M38.206 22.6281H36.6682C36.3415 22.6277 36.0147 22.6111 35.6896 22.5775V24.3983H39.1847V22.5775C38.8595 22.6111 38.5328 22.6277 38.206 22.6281Z" fill="#FF4100"/>
<path d="M12.9739 19.0877C12.9739 20.554 11.8001 21.7428 10.3527 21.7428C8.90488 21.7428 7.73145 20.554 7.73145 19.0877C7.73145 17.621 8.90488 16.4322 10.3527 16.4322C11.8001 16.4322 12.9739 17.621 12.9739 19.0877Z" fill="#43605E"/>
<path d="M11.2261 27.0534C11.2261 27.5425 10.835 27.9387 10.3526 27.9387C9.86991 27.9387 9.47876 27.5425 9.47876 27.0534C9.47876 26.5648 9.86991 26.1685 10.3526 26.1685C10.835 26.1685 11.2261 26.5648 11.2261 27.0534Z" fill="#43605E"/>
<path d="M7.64423 32.3645H13.0611C13.4138 30.6271 14.7537 29.2698 16.4686 28.9124V7.4925C14.7537 7.13514 13.4138 5.77781 13.0611 4.04083H7.64423C7.29148 5.77781 5.95166 7.13514 4.23669 7.4925V28.9124C5.95166 29.2698 7.29148 30.6271 7.64423 32.3645ZM10.3527 29.709C8.90486 29.709 7.73142 28.5202 7.73142 27.0535C7.73142 25.5871 8.90486 24.3984 10.3527 24.3984C11.8001 24.3984 12.9739 25.5871 12.9739 27.0535C12.9739 28.5202 11.8001 29.709 10.3527 29.709ZM10.3527 6.69593C11.8001 6.69593 12.9739 7.88471 12.9739 9.35144C12.9739 10.8178 11.8001 12.0065 10.3527 12.0065C8.90486 12.0065 7.73142 10.8178 7.73142 9.35144C7.73142 7.88471 8.90486 6.69593 10.3527 6.69593ZM10.3527 14.662C12.7651 14.662 14.7213 16.6433 14.7213 19.0878C14.7213 21.5318 12.7651 23.5131 10.3527 23.5131C7.94019 23.5131 5.98406 21.5318 5.98406 19.0878C5.98685 16.6446 7.94139 14.6649 10.3527 14.662Z" fill="#43605E"/>
<path d="M11.2261 9.35143C11.2261 9.84007 10.835 10.2363 10.3526 10.2363C9.86991 10.2363 9.47876 9.84007 9.47876 9.35143C9.47876 8.86239 9.86991 8.46613 10.3526 8.46613C10.835 8.46613 11.2261 8.86239 11.2261 9.35143Z" fill="#43605E"/>
<path d="M0.741943 35.9049H19.9633V0.5H0.741943V35.9049ZM2.4893 6.69591C2.4893 6.20727 2.88045 5.81101 3.36318 5.81101C4.81059 5.81101 5.98403 4.62183 5.98403 3.15551C5.98403 2.66687 6.37517 2.2702 6.85791 2.2702H13.8473C14.3301 2.2702 14.7212 2.66687 14.7212 3.15551C14.7212 4.62183 15.8947 5.81101 17.3421 5.81101C17.8248 5.81101 18.216 6.20727 18.216 6.69591V29.7089C18.216 30.1976 17.8248 30.5942 17.3421 30.5942C15.8947 30.5942 14.7212 31.783 14.7212 33.2493C14.7212 33.7384 14.3301 34.1346 13.8473 34.1346H6.85791C6.37517 34.1346 5.98403 33.7384 5.98403 33.2493C5.98403 31.783 4.81059 30.5942 3.36318 30.5942C2.88045 30.5942 2.4893 30.1976 2.4893 29.7089V6.69591Z" fill="#43605E"/>
<path d="M50.0968 12.0066V7.58125C50.0968 6.11452 48.9234 4.92574 47.476 4.92574H46.1741V4.04085H43.5529C43.0706 4.04085 42.6794 3.64418 42.6794 3.15554C42.6794 2.6669 43.0706 2.27024 43.5529 2.27024H47.0476C47.2752 2.27267 47.494 2.18069 47.6531 2.0166C47.8247 1.8525 47.9219 1.62398 47.9215 1.38534C47.9215 0.896293 47.5303 0.500033 47.0476 0.500033H27.8266C27.5991 0.498007 27.3803 0.589981 27.2211 0.754077C27.0496 0.918172 26.9524 1.14628 26.9528 1.38534C26.9528 1.87398 27.3439 2.27024 27.8266 2.27024H31.3214C31.8037 2.27024 32.1948 2.6669 32.1948 3.15554C32.1948 3.64418 31.8037 4.04085 31.3214 4.04085H28.7001V4.92574H27.3983C25.9509 4.92574 24.7775 6.11452 24.7775 7.58125V12.0066C24.7803 14.4498 26.7344 16.4294 29.1457 16.4323H29.5688C30.9242 19.1437 33.6682 20.8539 36.6682 20.858H38.206C41.206 20.8539 43.95 19.1437 45.3055 16.4323H45.7286C48.1399 16.4294 50.094 14.4498 50.0968 12.0066ZM26.5248 12.0066V7.58125C26.5248 7.09221 26.916 6.69595 27.3983 6.69595H28.7001V12.7857C28.7025 13.4101 28.7761 14.032 28.9205 14.639C27.5691 14.5235 26.5288 13.3805 26.5248 12.0066ZM48.3494 12.0066C48.3454 13.3805 47.3052 14.5235 45.9538 14.639C46.0981 14.032 46.1717 13.4101 46.1741 12.7857V6.69595H47.476C47.9583 6.69595 48.3494 7.09221 48.3494 7.58125V12.0066Z" fill="#FF4100"/>
</g>
<defs>
<clipPath id="clip0">
<rect width="49.3548" height="35.4049" fill="white" transform="translate(0.741943 0.5)"/>
</clipPath>
</defs>
</svg>
