<svg width="150" height="107" viewBox="0 0 150 107" fill="none" xmlns="http://www.w3.org/2000/svg">
<path fill-rule="evenodd" clip-rule="evenodd" d="M78.0573 24.1304C82.7422 26.9762 86.6721 30.6157 89.7696 35.1458C91.2409 37.314 92.4218 39.6371 93.1575 42.1732V42.27C93.0959 42.1622 93.0404 42.0544 92.9862 41.9491C92.9041 41.7895 92.8248 41.6355 92.7316 41.4956C91.8991 40.1211 90.6214 39.3855 89.0533 39.1338C86.9819 38.8047 85.0072 39.2112 83.0326 39.7726C79.9932 40.6632 77.1668 42.0183 74.4178 43.567C71.359 45.2706 68.4551 47.2066 65.6674 49.3167C65.6481 49.3361 65.6094 49.3554 65.5126 49.3942C65.6248 49.1869 65.7332 48.9951 65.8378 48.81C65.9676 48.5803 66.0915 48.361 66.2095 48.1358C68.339 44.3608 70.1781 40.4502 71.5526 36.3267C72.5012 33.4809 73.2562 30.5964 73.9144 27.6731C74.2823 26.0663 74.6114 24.4595 74.9405 22.8333C74.9494 22.7887 74.9624 22.7441 74.9777 22.6919C74.9955 22.6308 75.0164 22.5594 75.0373 22.4655C75.3537 22.6387 75.6683 22.8063 75.981 22.9729C76.6824 23.3466 77.3745 23.7154 78.0573 24.1304ZM77.1175 24.9365C77.0978 24.9506 77.0809 24.9629 77.07 24.9629C80.1868 28.1958 83.0713 31.5837 84.4652 35.9782C84.2522 35.1071 84.0199 34.2553 83.7102 33.4228C82.8777 31.1965 81.542 29.2993 79.8964 27.5957C79.227 26.9117 78.5357 26.2387 77.8472 25.5684C77.6198 25.347 77.3927 25.1259 77.1668 24.9048C77.1498 24.9133 77.1328 24.9255 77.1175 24.9365Z" fill="#5C4CC1"/>
<path d="M58.4667 32.4326C58.8523 33.9672 59.2351 35.4905 59.608 37.0237C59.5094 37.0154 59.4109 37.0037 59.3079 36.9915C59.1682 36.9749 59.0201 36.9574 58.853 36.9462C57.7495 36.8301 56.9558 37.5076 56.8977 38.6305C56.859 39.5016 57.7495 40.3341 58.5626 40.1986C59.4918 40.0437 60.15 39.521 60.5372 38.6692C60.634 38.4562 60.6534 38.1658 60.5953 37.9335C60.2495 36.533 59.8728 35.148 59.4928 33.7508L59.3563 33.2486C59.3329 33.1548 59.3165 33.061 59.2987 32.9587C59.2871 32.892 59.2748 32.8216 59.2595 32.7453C60.15 32.9195 60.8857 33.2873 61.389 34.0036C61.873 34.7006 62.086 35.4556 61.9311 36.3074C61.9177 36.3608 61.9413 36.4235 61.9635 36.4827C61.9735 36.5092 61.9832 36.5351 61.9892 36.559C62.0098 36.5453 62.0377 36.534 62.066 36.5225C62.1175 36.5017 62.1703 36.4803 62.1828 36.4429C62.7829 35.1265 62.7829 33.9068 61.7569 32.784C61.4372 32.4377 61.0534 32.2105 60.6686 31.9827C60.494 31.8794 60.3192 31.7759 60.15 31.6612C60.0435 31.5874 59.9343 31.5171 59.8251 31.4467C59.4185 31.1849 59.0115 30.9228 58.7368 30.4802C58.7175 30.4415 58.64 30.4222 58.6013 30.4222C58.4499 30.4525 58.2984 30.4946 58.1377 30.5393C58.093 30.5518 58.0475 30.5644 58.0012 30.577C58.1565 31.1983 58.3118 31.8164 58.4667 32.4326Z" fill="#5C4CC1"/>
<path d="M65.6674 39.4626C65.3189 38.0495 64.9705 36.6363 64.622 35.2039C64.7575 35.1651 64.8931 35.1264 65.0092 35.1071C65.0286 35.1071 65.0867 35.1264 65.106 35.1458C65.2853 35.4297 65.5454 35.5983 65.806 35.7672C65.883 35.8172 65.9602 35.8672 66.0353 35.9202C66.1613 36.0112 66.2949 36.0895 66.4288 36.168C66.6651 36.3066 66.9023 36.4457 67.1 36.6558C67.7776 37.3915 67.7776 38.2045 67.371 39.0564C67.3517 39.0951 67.2936 39.1144 67.2355 39.1338C67.2162 39.0757 67.1968 39.0176 67.1968 38.9596C67.313 38.3981 67.1581 37.8948 66.8483 37.4495C66.5192 36.9849 66.0353 36.7332 65.4545 36.6171C65.4738 36.7332 65.4932 36.8494 65.5319 36.9462C65.6223 37.2882 65.7147 37.6302 65.8072 37.9722C65.9922 38.6562 66.1772 39.3403 66.345 40.0243C66.3837 40.1792 66.3644 40.3728 66.3063 40.5083C66.0546 41.0697 65.6094 41.4182 65.0092 41.515C64.4672 41.6118 63.8864 41.0504 63.9251 40.4889C63.9638 39.7533 64.4865 39.308 65.2222 39.3855C65.3577 39.4242 65.4931 39.4432 65.6674 39.4626Z" fill="#5C4CC1"/>
<path fill-rule="evenodd" clip-rule="evenodd" d="M89.6922 40.9342C89.6535 40.8568 89.5373 40.7793 89.4405 40.76C89.1501 40.7212 88.8791 40.7019 88.5887 40.7019C86.827 40.6632 85.1234 40.9923 83.4585 41.5343C80.6321 42.4249 77.9992 43.7994 75.4438 45.3094C73.992 46.1611 72.5498 47.0322 71.1077 47.9033C69.6654 48.7745 68.2228 49.6458 66.7709 50.4976C64.622 51.756 62.3957 52.9175 59.9952 53.6338C59.5204 53.7878 59.0285 53.8993 58.5253 54.0133C58.2694 54.0713 58.0106 54.13 57.7495 54.1952C57.7658 54.2548 57.782 54.3129 57.7978 54.3695C57.8386 54.515 57.8765 54.6505 57.9044 54.776C58.4658 56.557 59.6467 57.8928 61.0212 59.0931C61.3116 59.3641 61.602 59.4996 62.0085 59.5384C64.1768 59.7707 66.3256 59.6545 68.3971 59.0157C69.7663 58.5965 71.1154 58.0967 72.4661 57.5963C72.9869 57.4033 73.508 57.2102 74.0306 57.0217C76.0633 56.286 78.1348 55.744 80.303 55.7052C82.0453 55.6859 83.7296 55.9569 85.3944 56.4022C85.5493 56.4409 85.7816 56.4215 85.8784 56.3247C88.7242 53.7693 90.6989 50.7299 91.1248 46.8387C91.3571 44.7092 90.8537 42.7346 89.6922 40.9342ZM88.8985 48.8715C88.5887 50.0911 87.4078 52.8401 86.7109 53.8661C88.1047 50.517 88.9953 47.0517 89.3631 43.3541C89.5373 44.0123 89.2082 47.6905 88.8985 48.8715Z" fill="#5C4CC1"/>
<path d="M94.3965 61.3388C93.9772 61.1863 93.5663 61.0318 93.159 60.8786C92.325 60.5649 91.5055 60.2568 90.6602 59.9836C87.9111 59.0931 85.1041 58.5511 82.2002 58.6672C80.09 58.7446 78.0573 59.2093 76.0633 59.8288C75.5179 59.9988 74.9743 60.1742 74.4308 60.3496C73.1803 60.7531 71.9306 61.1563 70.6621 61.4937C67.3904 62.3648 64.1768 62.0357 61.0406 60.8742C60.3974 60.6403 59.7652 60.3622 59.1274 60.0817C58.9206 59.9907 58.7131 59.8995 58.5045 59.8094C58.3884 59.7707 58.2916 59.7126 58.1948 59.6158C58.393 59.6625 58.593 59.7109 58.7937 59.7594C59.2593 59.8721 59.7289 59.9858 60.1888 60.0804C63.4992 60.7967 66.7322 60.5644 69.9071 59.4222C70.6074 59.171 71.3048 58.9078 72.0027 58.6444C73.0796 58.238 74.1578 57.8311 75.2502 57.4669C77.2829 56.77 79.3931 56.4409 81.5613 56.5764C84.3491 56.77 86.9819 57.5831 89.4986 58.7447C90.572 59.2474 91.6263 59.8073 92.675 60.3643C93.1204 60.6008 93.5649 60.8369 94.0093 61.0678C94.0516 61.096 94.0913 61.1267 94.1332 61.1591C94.2062 61.2157 94.2857 61.2773 94.3965 61.3388Z" fill="#5C4CC1"/>
<path d="M49.7133 72.8961V74.8141H45.7093V76.8861H48.7053V78.7481H45.7093V82.7241H43.3153V72.8961H49.7133ZM53.3656 76.2141C53.6456 75.7848 53.9956 75.4488 54.4156 75.2061C54.8356 74.9541 55.3022 74.8281 55.8156 74.8281V77.3621H55.1576C54.5602 77.3621 54.1122 77.4928 53.8136 77.7541C53.5149 78.0061 53.3656 78.4541 53.3656 79.0981V82.7241H50.9716V74.9121H53.3656V76.2141ZM64.3238 78.6921C64.3238 78.9161 64.3098 79.1495 64.2818 79.3921H58.8638C58.9012 79.8775 59.0552 80.2508 59.3258 80.5121C59.6058 80.7641 59.9465 80.8901 60.3478 80.8901C60.9452 80.8901 61.3605 80.6381 61.5938 80.1341H64.1418C64.0112 80.6475 63.7732 81.1095 63.4278 81.5201C63.0918 81.9308 62.6672 82.2528 62.1538 82.4861C61.6405 82.7195 61.0665 82.8361 60.4318 82.8361C59.6665 82.8361 58.9852 82.6728 58.3878 82.3461C57.7905 82.0195 57.3238 81.5528 56.9878 80.9461C56.6518 80.3395 56.4838 79.6301 56.4838 78.8181C56.4838 78.0061 56.6472 77.2968 56.9738 76.6901C57.3098 76.0835 57.7765 75.6168 58.3738 75.2901C58.9712 74.9635 59.6572 74.8001 60.4318 74.8001C61.1878 74.8001 61.8598 74.9588 62.4478 75.2761C63.0358 75.5935 63.4932 76.0461 63.8198 76.6341C64.1558 77.2221 64.3238 77.9081 64.3238 78.6921ZM61.8738 78.0621C61.8738 77.6515 61.7338 77.3248 61.4538 77.0821C61.1738 76.8395 60.8238 76.7181 60.4038 76.7181C60.0025 76.7181 59.6618 76.8348 59.3818 77.0681C59.1112 77.3015 58.9432 77.6328 58.8778 78.0621H61.8738ZM65.1108 78.8041C65.1108 78.0015 65.2601 77.2968 65.5588 76.6901C65.8668 76.0835 66.2821 75.6168 66.8048 75.2901C67.3275 74.9635 67.9108 74.8001 68.5548 74.8001C69.0681 74.8001 69.5348 74.9075 69.9548 75.1221C70.3841 75.3368 70.7201 75.6261 70.9628 75.9901V72.3641H73.3568V82.7241H70.9628V81.6041C70.7388 81.9775 70.4168 82.2761 69.9968 82.5001C69.5861 82.7241 69.1055 82.8361 68.5548 82.8361C67.9108 82.8361 67.3275 82.6728 66.8048 82.3461C66.2821 82.0101 65.8668 81.5388 65.5588 80.9321C65.2601 80.3161 65.1108 79.6068 65.1108 78.8041ZM70.9628 78.8181C70.9628 78.2208 70.7948 77.7495 70.4588 77.4041C70.1321 77.0588 69.7308 76.8861 69.2548 76.8861C68.7788 76.8861 68.3728 77.0588 68.0368 77.4041C67.7101 77.7401 67.5468 78.2068 67.5468 78.8041C67.5468 79.4015 67.7101 79.8775 68.0368 80.2321C68.3728 80.5775 68.7788 80.7501 69.2548 80.7501C69.7308 80.7501 70.1321 80.5775 70.4588 80.2321C70.7948 79.8868 70.9628 79.4155 70.9628 78.8181ZM81.0388 77.6841C81.6081 77.8055 82.0654 78.0901 82.4108 78.5381C82.7561 78.9768 82.9288 79.4808 82.9288 80.0501C82.9288 80.8715 82.6394 81.5248 82.0608 82.0101C81.4914 82.4861 80.6934 82.7241 79.6668 82.7241H75.0888V72.8961H79.5128C80.5114 72.8961 81.2908 73.1248 81.8508 73.5821C82.4201 74.0395 82.7048 74.6601 82.7048 75.4441C82.7048 76.0228 82.5508 76.5035 82.2428 76.8861C81.9441 77.2688 81.5428 77.5348 81.0388 77.6841ZM77.4828 76.8721H79.0508C79.4428 76.8721 79.7414 76.7881 79.9468 76.6201C80.1614 76.4428 80.2688 76.1861 80.2688 75.8501C80.2688 75.5141 80.1614 75.2575 79.9468 75.0801C79.7414 74.9028 79.4428 74.8141 79.0508 74.8141H77.4828V76.8721ZM79.2468 80.7921C79.6481 80.7921 79.9561 80.7035 80.1708 80.5261C80.3948 80.3395 80.5068 80.0735 80.5068 79.7281C80.5068 79.3828 80.3901 79.1121 80.1568 78.9161C79.9328 78.7201 79.6201 78.6221 79.2188 78.6221H77.4828V80.7921H79.2468ZM87.8733 82.8361C87.1079 82.8361 86.4173 82.6728 85.8013 82.3461C85.1946 82.0195 84.7139 81.5528 84.3593 80.9461C84.0139 80.3395 83.8413 79.6301 83.8413 78.8181C83.8413 78.0155 84.0186 77.3108 84.3733 76.7041C84.7279 76.0881 85.2133 75.6168 85.8293 75.2901C86.4453 74.9635 87.1359 74.8001 87.9013 74.8001C88.6666 74.8001 89.3573 74.9635 89.9733 75.2901C90.5893 75.6168 91.0746 76.0881 91.4293 76.7041C91.7839 77.3108 91.9613 78.0155 91.9613 78.8181C91.9613 79.6208 91.7793 80.3301 91.4153 80.9461C91.0606 81.5528 90.5706 82.0195 89.9453 82.3461C89.3293 82.6728 88.6386 82.8361 87.8733 82.8361ZM87.8733 80.7641C88.3306 80.7641 88.7179 80.5961 89.0353 80.2601C89.3619 79.9241 89.5253 79.4435 89.5253 78.8181C89.5253 78.1928 89.3666 77.7121 89.0493 77.3761C88.7413 77.0401 88.3586 76.8721 87.9013 76.8721C87.4346 76.8721 87.0473 77.0401 86.7393 77.3761C86.4313 77.7028 86.2773 78.1835 86.2773 78.8181C86.2773 79.4435 86.4266 79.9241 86.7253 80.2601C87.0333 80.5961 87.4159 80.7641 87.8733 80.7641ZM92.7553 78.8041C92.7553 78.0015 92.9047 77.2968 93.2033 76.6901C93.5113 76.0835 93.9267 75.6168 94.4493 75.2901C94.972 74.9635 95.5553 74.8001 96.1993 74.8001C96.75 74.8001 97.2307 74.9121 97.6413 75.1361C98.0613 75.3601 98.3833 75.6541 98.6073 76.0181V74.9121H101.001V82.7241H98.6073V81.6181C98.374 81.9821 98.0473 82.2761 97.6273 82.5001C97.2167 82.7241 96.736 82.8361 96.1853 82.8361C95.5507 82.8361 94.972 82.6728 94.4493 82.3461C93.9267 82.0101 93.5113 81.5388 93.2033 80.9321C92.9047 80.3161 92.7553 79.6068 92.7553 78.8041ZM98.6073 78.8181C98.6073 78.2208 98.4393 77.7495 98.1033 77.4041C97.7767 77.0588 97.3753 76.8861 96.8993 76.8861C96.4233 76.8861 96.0173 77.0588 95.6813 77.4041C95.3547 77.7401 95.1913 78.2068 95.1913 78.8041C95.1913 79.4015 95.3547 79.8775 95.6813 80.2321C96.0173 80.5775 96.4233 80.7501 96.8993 80.7501C97.3753 80.7501 97.7767 80.5775 98.1033 80.2321C98.4393 79.8868 98.6073 79.4155 98.6073 78.8181ZM107.087 80.6941V82.7241H105.869C105.001 82.7241 104.325 82.5141 103.839 82.0941C103.354 81.6648 103.111 80.9695 103.111 80.0081V76.9001H102.159V74.9121H103.111V73.0081H105.505V74.9121H107.073V76.9001H105.505V80.0361C105.505 80.2695 105.561 80.4375 105.673 80.5401C105.785 80.6428 105.972 80.6941 106.233 80.6941H107.087Z" fill="#5C4CC1"/>
</svg>
