<svg width="150" height="107" viewBox="0 0 150 107" fill="none" xmlns="http://www.w3.org/2000/svg">
<path d="M41.3809 75.8588H45.5569V80.8508C45.1089 81.2241 44.5702 81.4961 43.9409 81.6668C43.3222 81.8374 42.7089 81.9228 42.1009 81.9228C41.3862 81.9228 40.7195 81.8108 40.1009 81.5868C39.4929 81.3628 38.9649 81.0161 38.5169 80.5468C38.0689 80.0668 37.7169 79.4588 37.4609 78.7228C37.2049 77.9868 37.0769 77.1121 37.0769 76.0988C37.0769 75.0428 37.2262 74.1468 37.5249 73.4108C37.8342 72.6641 38.2342 72.0614 38.7249 71.6028C39.2262 71.1334 39.7862 70.7974 40.4049 70.5948C41.0235 70.3814 41.6529 70.2748 42.2929 70.2748C42.9329 70.2748 43.4929 70.3228 43.9729 70.4188C44.4635 70.5148 44.8529 70.6161 45.1409 70.7228L44.6929 72.5628C44.4262 72.4561 44.1275 72.3761 43.7969 72.3228C43.4662 72.2588 43.0449 72.2268 42.5329 72.2268C42.0742 72.2268 41.6529 72.2961 41.2689 72.4348C40.8849 72.5734 40.5489 72.8028 40.2609 73.1228C39.9835 73.4321 39.7649 73.8321 39.6049 74.3228C39.4555 74.8134 39.3809 75.4108 39.3809 76.1148C39.3809 76.7868 39.4555 77.3681 39.6049 77.8588C39.7542 78.3388 39.9622 78.7388 40.2289 79.0588C40.4955 79.3681 40.8049 79.5974 41.1569 79.7468C41.5195 79.8961 41.9035 79.9708 42.3089 79.9708C42.5862 79.9708 42.8582 79.9388 43.1249 79.8748C43.3915 79.8001 43.6155 79.6934 43.7969 79.5548V77.4428L41.3809 77.1868V75.8588ZM47.0829 74.1628C47.5095 73.9708 48.0162 73.8214 48.6029 73.7148C49.1895 73.5974 49.8029 73.5388 50.4429 73.5388C50.9975 73.5388 51.4615 73.6081 51.8349 73.7468C52.2082 73.8748 52.5015 74.0614 52.7149 74.3068C52.9389 74.5521 53.0935 74.8454 53.1789 75.1868C53.2749 75.5281 53.3229 75.9121 53.3229 76.3388C53.3229 76.8081 53.3069 77.2828 53.2749 77.7628C53.2429 78.2321 53.2215 78.6961 53.2109 79.1548C53.2109 79.6134 53.2269 80.0614 53.2589 80.4988C53.2909 80.9254 53.3709 81.3308 53.4989 81.7148H51.8029L51.4669 80.6108H51.3869C51.1735 80.9414 50.8749 81.2294 50.4909 81.4748C50.1175 81.7094 49.6322 81.8268 49.0349 81.8268C48.6615 81.8268 48.3255 81.7734 48.0269 81.6668C47.7282 81.5494 47.4722 81.3894 47.2589 81.1868C47.0455 80.9734 46.8802 80.7281 46.7629 80.4508C46.6455 80.1628 46.5869 79.8428 46.5869 79.4908C46.5869 79.0001 46.6935 78.5894 46.9069 78.2588C47.1309 77.9174 47.4455 77.6454 47.8509 77.4428C48.2669 77.2294 48.7575 77.0854 49.3229 77.0108C49.8989 76.9254 50.5389 76.8988 51.2429 76.9308C51.3175 76.3334 51.2749 75.9068 51.1149 75.6508C50.9549 75.3841 50.5975 75.2508 50.0429 75.2508C49.6269 75.2508 49.1842 75.2934 48.7149 75.3788C48.2562 75.4641 47.8775 75.5761 47.5789 75.7148L47.0829 74.1628ZM49.7229 80.1148C50.1389 80.1148 50.4695 80.0241 50.7149 79.8428C50.9602 79.6508 51.1415 79.4481 51.2589 79.2348V78.1948C50.9282 78.1628 50.6082 78.1574 50.2989 78.1788C50.0002 78.2001 49.7335 78.2481 49.4989 78.3228C49.2642 78.3974 49.0775 78.5041 48.9389 78.6428C48.8002 78.7814 48.7309 78.9574 48.7309 79.1708C48.7309 79.4694 48.8162 79.7041 48.9869 79.8748C49.1682 80.0348 49.4135 80.1148 49.7229 80.1148ZM59.6124 81.6988V77.3468C59.6124 76.6108 59.543 76.0881 59.4044 75.7788C59.2657 75.4694 58.9777 75.3148 58.5404 75.3148C58.1777 75.3148 57.8844 75.4161 57.6604 75.6188C57.4364 75.8108 57.2657 76.0614 57.1484 76.3708V81.6988H55.0684V73.6988H56.6844L56.9244 74.7548H56.9884C57.2337 74.4134 57.543 74.1148 57.9164 73.8588C58.3004 73.6028 58.791 73.4748 59.3884 73.4748C59.9004 73.4748 60.3164 73.5814 60.6364 73.7948C60.967 73.9974 61.223 74.3441 61.4044 74.8348C61.6497 74.4188 61.9644 74.0881 62.3484 73.8428C62.7324 73.5974 63.1964 73.4748 63.7404 73.4748C64.1884 73.4748 64.567 73.5281 64.8764 73.6348C65.1964 73.7414 65.4524 73.9281 65.6444 74.1948C65.847 74.4508 65.9964 74.7974 66.0924 75.2348C66.1884 75.6721 66.2364 76.2268 66.2364 76.8988V81.6988H64.1564V77.2028C64.1564 76.5734 64.087 76.1041 63.9484 75.7948C63.8204 75.4748 63.527 75.3148 63.0684 75.3148C62.695 75.3148 62.3964 75.4161 62.1724 75.6188C61.959 75.8214 61.799 76.0988 61.6924 76.4508V81.6988H59.6124ZM74.3434 81.0108C74.0234 81.2668 73.586 81.4854 73.0314 81.6668C72.4874 81.8374 71.906 81.9228 71.2874 81.9228C69.9967 81.9228 69.0527 81.5494 68.4554 80.8028C67.858 80.0454 67.5594 79.0108 67.5594 77.6988C67.5594 76.2908 67.8954 75.2348 68.5674 74.5308C69.2394 73.8268 70.1834 73.4748 71.3994 73.4748C71.8047 73.4748 72.1994 73.5281 72.5834 73.6348C72.9674 73.7414 73.3087 73.9174 73.6074 74.1628C73.906 74.4081 74.146 74.7388 74.3274 75.1548C74.5087 75.5708 74.5994 76.0881 74.5994 76.7068C74.5994 76.9308 74.5834 77.1708 74.5514 77.4268C74.53 77.6828 74.4927 77.9494 74.4394 78.2268H69.6394C69.6714 78.8988 69.842 79.4054 70.1514 79.7468C70.4714 80.0881 70.9834 80.2588 71.6874 80.2588C72.1247 80.2588 72.514 80.1948 72.8554 80.0668C73.2074 79.9281 73.474 79.7894 73.6554 79.6508L74.3434 81.0108ZM71.3674 75.1388C70.8234 75.1388 70.418 75.3041 70.1514 75.6348C69.8954 75.9548 69.7407 76.3868 69.6874 76.9308H72.6634C72.706 76.3548 72.6154 75.9121 72.3914 75.6028C72.178 75.2934 71.8367 75.1388 71.3674 75.1388ZM84.9953 78.6908C84.9953 78.3494 84.8673 78.0721 84.6113 77.8588C84.3659 77.6454 84.0513 77.4534 83.6673 77.2828C83.2939 77.1014 82.8833 76.9201 82.4353 76.7388C81.9979 76.5468 81.5873 76.3174 81.2033 76.0508C80.8299 75.7734 80.5153 75.4321 80.2593 75.0268C80.0139 74.6214 79.8913 74.1041 79.8913 73.4748C79.8913 72.9308 79.9819 72.4614 80.1633 72.0668C80.3446 71.6614 80.6006 71.3254 80.9313 71.0588C81.2726 70.7921 81.6726 70.5948 82.1313 70.4668C82.5899 70.3388 83.1019 70.2748 83.6673 70.2748C84.3179 70.2748 84.9313 70.3334 85.5073 70.4508C86.0833 70.5574 86.5579 70.7174 86.9313 70.9308L86.2433 72.7708C86.0086 72.6214 85.6566 72.4881 85.1873 72.3708C84.7179 72.2428 84.2113 72.1788 83.6673 72.1788C83.1553 72.1788 82.7606 72.2801 82.4833 72.4828C82.2166 72.6854 82.0833 72.9574 82.0833 73.2988C82.0833 73.6188 82.2059 73.8854 82.4513 74.0988C82.7073 74.3121 83.0219 74.5094 83.3953 74.6908C83.7793 74.8721 84.1899 75.0588 84.6273 75.2508C85.0753 75.4428 85.4859 75.6774 85.8593 75.9548C86.2433 76.2214 86.5579 76.5574 86.8033 76.9628C87.0593 77.3574 87.1873 77.8534 87.1873 78.4508C87.1873 79.0481 87.0859 79.5654 86.8833 80.0028C86.6913 80.4294 86.4139 80.7868 86.0513 81.0748C85.6993 81.3628 85.2673 81.5761 84.7553 81.7148C84.2539 81.8534 83.6993 81.9228 83.0913 81.9228C82.2913 81.9228 81.5873 81.8481 80.9793 81.6988C80.3713 81.5494 79.9233 81.4001 79.6353 81.2508L80.3393 79.3788C80.4566 79.4428 80.6059 79.5121 80.7873 79.5868C80.9793 79.6614 81.1926 79.7308 81.4273 79.7948C81.6619 79.8588 81.9073 79.9121 82.1633 79.9548C82.4299 79.9974 82.7019 80.0188 82.9793 80.0188C83.6299 80.0188 84.1259 79.9121 84.4673 79.6988C84.8193 79.4748 84.9953 79.1388 84.9953 78.6908ZM87.7676 73.6988H88.8716V72.1948L90.9516 71.6028V73.6988H92.9036V75.4588H90.9516V78.5308C90.9516 79.0854 91.005 79.4854 91.1116 79.7308C91.229 79.9654 91.4423 80.0828 91.7516 80.0828C91.965 80.0828 92.1463 80.0614 92.2956 80.0188C92.4556 79.9761 92.6316 79.9121 92.8236 79.8268L93.1916 81.4268C92.9036 81.5654 92.5676 81.6828 92.1836 81.7788C91.7996 81.8748 91.4103 81.9228 91.0156 81.9228C90.2796 81.9228 89.7356 81.7361 89.3836 81.3628C89.0423 80.9788 88.8716 80.3548 88.8716 79.4908V75.4588H87.7676V73.6988ZM94.1297 74.1628C94.5564 73.9708 95.0631 73.8214 95.6497 73.7148C96.2364 73.5974 96.8497 73.5388 97.4897 73.5388C98.0444 73.5388 98.5084 73.6081 98.8817 73.7468C99.2551 73.8748 99.5484 74.0614 99.7617 74.3068C99.9857 74.5521 100.14 74.8454 100.226 75.1868C100.322 75.5281 100.37 75.9121 100.37 76.3388C100.37 76.8081 100.354 77.2828 100.322 77.7628C100.29 78.2321 100.268 78.6961 100.258 79.1548C100.258 79.6134 100.274 80.0614 100.306 80.4988C100.338 80.9254 100.418 81.3308 100.546 81.7148H98.8497L98.5137 80.6108H98.4337C98.2204 80.9414 97.9217 81.2294 97.5377 81.4748C97.1644 81.7094 96.6791 81.8268 96.0817 81.8268C95.7084 81.8268 95.3724 81.7734 95.0737 81.6668C94.7751 81.5494 94.5191 81.3894 94.3057 81.1868C94.0924 80.9734 93.9271 80.7281 93.8097 80.4508C93.6924 80.1628 93.6337 79.8428 93.6337 79.4908C93.6337 79.0001 93.7404 78.5894 93.9537 78.2588C94.1777 77.9174 94.4924 77.6454 94.8977 77.4428C95.3137 77.2294 95.8044 77.0854 96.3697 77.0108C96.9457 76.9254 97.5857 76.8988 98.2897 76.9308C98.3644 76.3334 98.3217 75.9068 98.1617 75.6508C98.0017 75.3841 97.6444 75.2508 97.0897 75.2508C96.6737 75.2508 96.2311 75.2934 95.7617 75.3788C95.3031 75.4641 94.9244 75.5761 94.6257 75.7148L94.1297 74.1628ZM96.7697 80.1148C97.1857 80.1148 97.5164 80.0241 97.7617 79.8428C98.0071 79.6508 98.1884 79.4481 98.3057 79.2348V78.1948C97.9751 78.1628 97.6551 78.1574 97.3457 78.1788C97.0471 78.2001 96.7804 78.2481 96.5457 78.3228C96.3111 78.3974 96.1244 78.5041 95.9857 78.6428C95.8471 78.7814 95.7777 78.9574 95.7777 79.1708C95.7777 79.4694 95.8631 79.7041 96.0337 79.8748C96.2151 80.0348 96.4604 80.1148 96.7697 80.1148ZM101.283 73.6988H102.387V72.1948L104.467 71.6028V73.6988H106.419V75.4588H104.467V78.5308C104.467 79.0854 104.521 79.4854 104.627 79.7308C104.745 79.9654 104.958 80.0828 105.267 80.0828C105.481 80.0828 105.662 80.0614 105.811 80.0188C105.971 79.9761 106.147 79.9121 106.339 79.8268L106.707 81.4268C106.419 81.5654 106.083 81.6828 105.699 81.7788C105.315 81.8748 104.926 81.9228 104.531 81.9228C103.795 81.9228 103.251 81.7361 102.899 81.3628C102.558 80.9788 102.387 80.3548 102.387 79.4908V75.4588H101.283V73.6988ZM111.005 79.4908C111.005 79.2774 110.915 79.1068 110.733 78.9788C110.552 78.8508 110.328 78.7334 110.061 78.6268C109.795 78.5201 109.501 78.4134 109.181 78.3068C108.861 78.1894 108.568 78.0348 108.301 77.8428C108.035 77.6401 107.811 77.3894 107.629 77.0908C107.448 76.7814 107.357 76.3868 107.357 75.9068C107.357 75.1174 107.592 74.5148 108.061 74.0988C108.531 73.6828 109.208 73.4748 110.093 73.4748C110.701 73.4748 111.251 73.5388 111.741 73.6668C112.232 73.7948 112.616 73.9388 112.893 74.0988L112.429 75.6028C112.184 75.5068 111.875 75.4054 111.501 75.2988C111.128 75.1921 110.749 75.1388 110.365 75.1388C109.747 75.1388 109.437 75.3788 109.437 75.8588C109.437 76.0508 109.528 76.2054 109.709 76.3228C109.891 76.4401 110.115 76.5521 110.381 76.6588C110.648 76.7548 110.941 76.8614 111.261 76.9788C111.581 77.0961 111.875 77.2508 112.141 77.4428C112.408 77.6241 112.632 77.8641 112.813 78.1628C112.995 78.4614 113.085 78.8454 113.085 79.3148C113.085 80.1254 112.824 80.7654 112.301 81.2348C111.789 81.6934 111.016 81.9228 109.981 81.9228C109.416 81.9228 108.883 81.8481 108.381 81.6988C107.891 81.5601 107.491 81.3948 107.181 81.2028L107.757 79.6508C108.003 79.7894 108.328 79.9281 108.733 80.0668C109.139 80.1948 109.555 80.2588 109.981 80.2588C110.291 80.2588 110.536 80.2001 110.717 80.0828C110.909 79.9654 111.005 79.7681 111.005 79.4908Z" fill="#6D251E"/>
<path fill-rule="evenodd" clip-rule="evenodd" d="M71.2607 24.7268H77.4461V55.6535H71.2607V24.7268ZM58.8899 34.0048H65.517V55.6535H58.8899V34.0048ZM89.8166 42.3992H83.6312V55.6535H89.8166V42.3992Z" fill="#6D251E"/>
</svg>
