<svg width="150" height="107" viewBox="0 0 150 107" fill="none" xmlns="http://www.w3.org/2000/svg">
<path fill-rule="evenodd" clip-rule="evenodd" d="M50.2213 82.216C49.7417 82.216 49.3525 81.8282 49.3525 81.3501C49.3525 80.8724 49.7417 80.4848 50.2213 80.4848C50.7003 80.4848 51.0894 80.8724 51.0894 81.3501C51.0894 81.8282 50.7003 82.216 50.2213 82.216ZM48.6829 83.7488C48.2036 83.7488 47.8148 83.361 47.8148 82.8836C47.8148 82.4053 48.2036 82.0177 48.6829 82.0177C49.1623 82.0177 49.5513 82.4053 49.5513 82.8836C49.5513 83.361 49.1623 83.7488 48.6829 83.7488ZM47.1456 82.216C46.6662 82.216 46.2772 81.8282 46.2772 81.3501C46.2772 80.8724 46.6662 80.4848 47.1456 80.4848C47.6242 80.4848 48.0137 80.8724 48.0137 81.3501C48.0137 81.8282 47.6242 82.216 47.1456 82.216ZM48.6829 78.9518C49.1623 78.9518 49.5513 79.3397 49.5513 79.8175C49.5513 80.2943 49.1623 80.6825 48.6829 80.6825C48.2036 80.6825 47.8148 80.2943 47.8148 79.8175C47.8148 79.3397 48.2036 78.9518 48.6829 78.9518ZM51.5925 84.2427C52.5458 83.5589 53.0811 82.542 53.0978 81.5081C53.1313 80.7744 52.9139 79.9573 52.3118 79.2904L53.3821 78.0233L51.1578 76.4391C50.89 76.7893 50.5555 77.2063 50.2711 77.573C49.7193 77.3728 49.1337 77.2562 48.5652 77.2562C46.0062 77.2562 43.9656 78.8903 43.9656 81.4748C43.9656 83.7971 45.477 85.3314 47.8423 85.588V85.2864C47.8423 84.8256 48.2208 84.4483 48.683 84.4483C49.1455 84.4483 49.5239 84.8256 49.5239 85.2864V86.0036H50.2434C50.7056 86.0036 51.084 86.3808 51.084 86.8417C51.084 87.3026 50.7056 87.68 50.2434 87.68H49.5239V88.3969C49.5239 88.8579 49.1455 89.2353 48.683 89.2353C48.2208 89.2353 47.8423 88.8579 47.8423 88.3969V87.68H47.1232C46.6607 87.68 46.2822 87.3026 46.2822 86.8417C46.2822 86.6553 46.3448 86.4832 46.449 86.3437H44.0827C43.9156 88.8613 45.5715 90.3954 48.5318 90.3954C50.89 90.3954 53.2149 89.395 53.2149 86.7272C53.2149 86.277 53.1144 85.1097 51.5925 84.2427Z" fill="black"/>
<path fill-rule="evenodd" clip-rule="evenodd" d="M78.391 39.0989C77.1398 39.0989 76.1241 38.0871 76.1241 36.8397C76.1241 35.5934 77.1398 34.5821 78.391 34.5821C79.6407 34.5821 80.6561 35.5934 80.6561 36.8397C80.6561 38.0871 79.6407 39.0989 78.391 39.0989ZM74.377 43.0978C73.1266 43.0978 72.1119 42.086 72.1119 40.8404C72.1119 39.5925 73.1266 38.5812 74.377 38.5812C75.6278 38.5812 76.6429 39.5925 76.6429 40.8404C76.6429 42.086 75.6278 43.0978 74.377 43.0978ZM70.366 39.0989C69.1152 39.0989 68.1003 38.0871 68.1003 36.8397C68.1003 35.5934 69.1152 34.5821 70.366 34.5821C71.6147 34.5821 72.631 35.5934 72.631 36.8397C72.631 38.0871 71.6147 39.0989 70.366 39.0989ZM74.377 30.5823C75.6278 30.5823 76.6429 31.5943 76.6429 32.841C76.6429 34.0852 75.6278 35.0979 74.377 35.0979C73.1266 35.0979 72.1119 34.0852 72.1119 32.841C72.1119 31.5943 73.1266 30.5823 74.377 30.5823ZM81.9688 44.387C84.4561 42.6031 85.8527 39.9496 85.8962 37.2522C85.9837 35.3378 85.4166 33.2059 83.8455 31.4658L86.6381 28.1598L80.8346 24.0264C80.1358 24.9401 79.2632 26.0281 78.5212 26.9848C77.0815 26.4626 75.5534 26.1583 74.0702 26.1583C67.3934 26.1583 62.0691 30.4219 62.0691 37.1652C62.0691 43.2244 66.0125 47.2278 72.1841 47.8972V47.1103C72.1841 45.9079 73.1717 44.9235 74.3776 44.9235C75.5842 44.9235 76.5716 45.9079 76.5716 47.1103V48.9815H78.4487C79.6548 48.9815 80.642 49.9656 80.642 51.1683C80.642 52.3707 79.6548 53.3555 78.4487 53.3555H76.5716V55.226C76.5716 56.4289 75.5842 57.4135 74.3776 57.4135C73.1717 57.4135 72.1841 56.4289 72.1841 55.226V53.3555H70.3078C69.101 53.3555 68.1134 52.3707 68.1134 51.1683C68.1134 50.6819 68.2768 50.2329 68.5487 49.869H62.3746C61.9388 56.4376 66.2593 60.4404 73.9831 60.4404C80.1358 60.4404 86.202 57.8302 86.202 50.8695C86.202 49.6948 85.9397 46.6493 81.9688 44.387Z" fill="black"/>
<path fill-rule="evenodd" clip-rule="evenodd" d="M56.7766 81.7974C56.7766 82.9233 57.4967 83.5596 58.397 83.5596C59.4117 83.5596 60.0664 82.7438 60.0664 81.7974C60.0664 80.7205 59.4608 80.0188 58.397 80.0188C57.4967 80.0188 56.7766 80.6716 56.7766 81.7974ZM60.23 77.7671H63.0616V85.8278H60.2791L60.1482 84.963C59.4607 85.7461 58.3805 86.0236 57.4803 85.9746C55.107 85.8278 53.7812 84.1472 53.7812 81.7974C53.7812 79.4151 55.3525 77.5876 57.7095 77.5876C58.8552 77.5876 59.6572 77.9793 60.0827 78.6318L60.23 77.7671Z" fill="black"/>
<path fill-rule="evenodd" clip-rule="evenodd" d="M69.2813 85.8277V81.3568C69.2813 80.4267 68.9704 80.1167 68.4302 80.1167C67.9229 80.1167 67.3826 80.5246 67.3663 81.4058V85.8277H64.3711V77.7671H66.9081L67.1208 78.6318C67.6282 77.9302 68.5121 77.5876 69.3468 77.6038C70.1652 77.6202 70.9508 77.9955 71.36 78.7461C72.031 77.9139 72.9312 77.5876 74.0442 77.5876C75.7955 77.5876 77.1376 78.6645 77.1376 81.3404V85.8277H74.126V81.3568C74.126 80.5083 73.7332 80.1657 73.2913 80.1657C72.7839 80.1657 72.2438 80.5083 72.2438 81.3894V85.8277H69.2813Z" fill="black"/>
<path fill-rule="evenodd" clip-rule="evenodd" d="M83.9896 80.7256C83.9079 79.453 81.2563 79.404 81.0599 80.7256H83.9896ZM86.6905 82.6511H81.0438C81.2566 83.3691 82.1895 83.6791 82.8442 83.6791C83.7281 83.6791 84.3991 83.4181 84.9229 83.0264L86.3959 84.6745C85.4303 85.5719 84.1045 86.0124 82.7133 86.0124C80.16 86.0124 77.9995 84.7561 77.9995 81.8189C77.9995 78.8818 80.3073 77.5765 82.5005 77.5765C85.3648 77.5765 87.378 79.4693 86.6905 82.6511Z" fill="black"/>
<path fill-rule="evenodd" clip-rule="evenodd" d="M88.9715 83.0049C91.1647 83.0049 91.1483 85.9582 88.9715 85.9582C86.8273 85.9582 86.7946 83.0049 88.9715 83.0049Z" fill="black"/>
<path fill-rule="evenodd" clip-rule="evenodd" d="M95.0767 75.4828V77.8161H96.8935V80.1167H95.0603V82.7603C95.0767 83.3313 95.4041 83.5434 95.8624 83.5434C96.157 83.5434 96.5007 83.4292 96.7463 83.266L97.4009 85.4852C96.7134 85.8768 95.9115 86.0236 95.0767 86.0236C93.4728 86.0236 92.0324 85.2894 92.0815 82.7603V80.1167H90.7886V77.8161H92.0815V75.8091L95.0767 75.4828Z" fill="black"/>
<path fill-rule="evenodd" clip-rule="evenodd" d="M101.034 80.019L101.902 82.6297L102.72 80.019L103.588 77.7672H106.779L103.44 85.8769H100.445L96.959 77.7672H100.151L101.034 80.019Z" fill="black"/>
</svg>
