<svg width="48" height="47" viewBox="0 0 48 47" fill="none" xmlns="http://www.w3.org/2000/svg">
<path d="M43.7219 26.588C43.5326 22.9787 41.9654 19.5797 39.3434 17.0921C36.7214 14.6045 33.2447 13.218 29.6304 13.2188H18.3695C14.7552 13.218 11.2785 14.6045 8.65655 17.0921C6.03457 19.5797 4.4673 22.9787 4.27804 26.588L3.77866 36.0797C3.72468 37.1078 3.88054 38.1361 4.23675 39.1019C4.59296 40.0678 5.14206 40.9511 5.85061 41.6979C6.55917 42.4448 7.41233 43.0396 8.35815 43.4461C9.30397 43.8526 10.3226 44.0623 11.3521 44.0625H12.1452C13.7488 44.0559 15.2967 43.4745 16.5082 42.4239C17.7196 41.3733 18.5141 39.9232 18.7474 38.3367C18.9282 37.0725 19.5588 35.9159 20.5236 35.0792C21.4884 34.2424 22.7226 33.7818 23.9997 33.7817C25.2767 33.7816 26.511 34.2421 27.4759 35.0787C28.4408 35.9153 29.0716 37.0718 29.2525 38.336C29.4857 39.9226 30.2802 41.3729 31.4916 42.4237C32.703 43.4744 34.2511 44.0559 35.8547 44.0625H36.6478C37.6774 44.0624 38.6962 43.8527 39.6421 43.4462C40.588 43.0397 41.4413 42.4448 42.1499 41.6979C42.8585 40.951 43.4077 40.0676 43.7639 39.1017C44.1201 38.1357 44.2759 37.1073 44.2219 36.0791L43.7219 26.588ZM18.125 24.9688H16.6562V26.4375C16.6562 26.827 16.5015 27.2006 16.226 27.4761C15.9506 27.7515 15.577 27.9062 15.1875 27.9062C14.7979 27.9062 14.4244 27.7515 14.1489 27.4761C13.8735 27.2006 13.7187 26.827 13.7187 26.4375V24.9688H12.25C11.8604 24.9688 11.4869 24.814 11.2114 24.5386C10.936 24.2631 10.7812 23.8895 10.7812 23.5C10.7812 23.1105 10.936 22.7369 11.2114 22.4614C11.4869 22.186 11.8604 22.0312 12.25 22.0312H13.7187V20.5625C13.7187 20.173 13.8735 19.7994 14.1489 19.5239C14.4244 19.2485 14.7979 19.0938 15.1875 19.0938C15.577 19.0938 15.9506 19.2485 16.226 19.5239C16.5015 19.7994 16.6562 20.173 16.6562 20.5625V22.0312H18.125C18.5145 22.0312 18.8881 22.186 19.1635 22.4614C19.439 22.7369 19.5937 23.1105 19.5937 23.5C19.5937 23.8895 19.439 24.2631 19.1635 24.5386C18.8881 24.814 18.5145 24.9688 18.125 24.9688ZM25.4687 29.375H22.5312C22.1417 29.375 21.7681 29.2203 21.4927 28.9448C21.2172 28.6694 21.0625 28.2958 21.0625 27.9062C21.0625 27.5167 21.2172 27.1431 21.4927 26.8677C21.7681 26.5922 22.1417 26.4375 22.5312 26.4375H25.4687C25.8583 26.4375 26.2318 26.5922 26.5073 26.8677C26.7827 27.1431 26.9375 27.5167 26.9375 27.9062C26.9375 28.2958 26.7827 28.6694 26.5073 28.9448C26.2318 29.2203 25.8583 29.375 25.4687 29.375ZM32.8125 19.0938C33.103 19.0938 33.3869 19.1799 33.6285 19.3413C33.87 19.5027 34.0583 19.7321 34.1694 20.0004C34.2806 20.2688 34.3097 20.5641 34.253 20.849C34.1963 21.1339 34.0564 21.3957 33.851 21.6011C33.6456 21.8065 33.3839 21.9464 33.099 22.003C32.8141 22.0597 32.5188 22.0306 32.2504 21.9194C31.982 21.8083 31.7526 21.62 31.5912 21.3785C31.4299 21.137 31.3437 20.853 31.3437 20.5625C31.3437 20.173 31.4985 19.7994 31.7739 19.5239C32.0494 19.2485 32.4229 19.0938 32.8125 19.0938ZM29.875 24.9688C29.5845 24.9688 29.3005 24.8826 29.059 24.7212C28.8174 24.5598 28.6292 24.3304 28.518 24.0621C28.4069 23.7937 28.3778 23.4984 28.4344 23.2135C28.4911 22.9286 28.631 22.6668 28.8364 22.4614C29.0418 22.256 29.3035 22.1161 29.5884 22.0595C29.8733 22.0028 30.1687 22.0319 30.437 22.1431C30.7054 22.2542 30.9348 22.4425 31.0962 22.684C31.2576 22.9255 31.3437 23.2095 31.3437 23.5C31.3437 23.8895 31.189 24.2631 30.9135 24.5386C30.6381 24.814 30.2645 24.9688 29.875 24.9688ZM32.8125 27.9062C32.522 27.9062 32.238 27.8201 31.9965 27.6587C31.7549 27.4973 31.5667 27.2679 31.4555 26.9996C31.3444 26.7312 31.3153 26.4359 31.3719 26.151C31.4286 25.866 31.5685 25.6043 31.7739 25.3989C31.9793 25.1935 32.241 25.0536 32.5259 24.997C32.8108 24.9403 33.1062 24.9694 33.3745 25.0806C33.6429 25.1917 33.8723 25.38 34.0337 25.6215C34.1951 25.863 34.2812 26.147 34.2812 26.4375C34.2812 26.827 34.1265 27.2006 33.851 27.4761C33.5756 27.7515 33.202 27.9062 32.8125 27.9062ZM35.75 24.9688C35.4595 24.9688 35.1755 24.8826 34.934 24.7212C34.6924 24.5598 34.5042 24.3304 34.393 24.0621C34.2819 23.7937 34.2528 23.4984 34.3094 23.2135C34.3661 22.9286 34.506 22.6668 34.7114 22.4614C34.9168 22.256 35.1785 22.1161 35.4634 22.0595C35.7483 22.0028 36.0437 22.0319 36.312 22.1431C36.5804 22.2542 36.8098 22.4425 36.9712 22.684C37.1326 22.9255 37.2187 23.2095 37.2187 23.5C37.2187 23.8895 37.064 24.2631 36.7885 24.5386C36.5131 24.814 36.1395 24.9688 35.75 24.9688Z" fill="#FF4100"/>
<path d="M29.875 11.75V10.2812C29.875 9.89171 29.7203 9.51813 29.4448 9.24269C29.1694 8.96724 28.7958 8.8125 28.4062 8.8125H25.4688V4.40625C25.4688 4.01671 25.314 3.64313 25.0386 3.36769C24.7631 3.09224 24.3895 2.9375 24 2.9375C23.6105 2.9375 23.2369 3.09224 22.9614 3.36769C22.686 3.64313 22.5312 4.01671 22.5312 4.40625V8.8125H19.5938C19.2042 8.8125 18.8306 8.96724 18.5552 9.24269C18.2797 9.51813 18.125 9.89171 18.125 10.2812V11.75H29.875Z" fill="#43605E"/>
</svg>
