<svg width="46" height="46" viewBox="0 0 46 46" fill="none" xmlns="http://www.w3.org/2000/svg">
<g clip-path="url(#clip0)">
<path d="M22.8673 22.375C25.9619 22.375 28.4706 19.8566 28.4706 16.75C28.4706 13.6434 25.9619 11.125 22.8673 11.125C19.7726 11.125 17.2639 13.6434 17.2639 16.75C17.2639 19.8566 19.7726 22.375 22.8673 22.375Z" fill="#FF4100"/>
<path d="M15.3961 30V33.75C15.3961 34.2473 15.5929 34.7242 15.9432 35.0758C16.2935 35.4275 16.7685 35.625 17.2639 35.625H28.4706C28.966 35.625 29.4411 35.4275 29.7914 35.0758C30.1416 34.7242 30.3384 34.2473 30.3384 33.75V30C30.3367 28.5087 29.7459 27.0789 28.6954 26.0244C27.6449 24.9698 26.2206 24.3767 24.7351 24.375H20.9995C19.5139 24.3767 18.0896 24.9698 17.0391 26.0244C15.9887 27.0789 15.3978 28.5087 15.3961 30Z" fill="#FF4100"/>
<path d="M22.8673 4.62503C25.7692 4.61781 28.6324 5.29231 31.2281 6.59461C33.8239 7.89691 36.08 9.79087 37.8162 12.125H34.0741V15.875H41.5452C41.9618 15.875 42.3663 15.7352 42.6947 15.4779C43.023 15.2205 43.2562 14.8604 43.3572 14.4547L45.225 6.95472L41.601 6.04534L40.6865 9.71776C37.8407 5.97824 33.8987 3.22835 29.415 1.85488C24.9313 0.48141 20.1315 0.553469 15.6907 2.06092C11.2499 3.56838 7.39164 6.43537 4.65848 10.2587C1.92532 14.0819 0.454836 18.6691 0.453857 23.375H4.18943C4.19506 18.404 6.16471 13.6381 9.66627 10.123C13.1678 6.60793 17.9154 4.63068 22.8673 4.62503Z" fill="#43605E"/>
<path d="M41.5456 23.375C41.5446 27.3106 40.3103 31.1462 38.0175 34.3386C35.7246 37.531 32.4894 39.9184 28.7701 41.1628C25.0507 42.4071 21.0356 42.4453 17.2934 41.272C13.5512 40.0986 10.2715 37.7732 7.91883 34.625H11.6609V30.875H4.18979C3.77324 30.875 3.36865 31.0148 3.04033 31.2722C2.71201 31.5295 2.47881 31.8896 2.3778 32.2953L0.51001 39.7953L4.13399 40.7047L5.0485 37.0323C7.89433 40.7718 11.8363 43.5217 16.32 44.8952C20.8037 46.2686 25.6035 46.1966 30.0443 44.6891C34.485 43.1817 38.3433 40.3147 41.0765 36.4914C43.8097 32.6681 45.2801 28.0809 45.2811 23.375H41.5456Z" fill="#43605E"/>
</g>
<defs>
<clipPath id="clip0">
<rect width="44.8269" height="45" fill="white" transform="translate(0.453857 0.875)"/>
</clipPath>
</defs>
</svg>
