<svg width="150" height="107" viewBox="0 0 150 107" fill="none" xmlns="http://www.w3.org/2000/svg">
<path d="M21.9827 85.5767L23.9878 72.8965L29.7197 82.2065L35.4445 72.8965L37.4497 85.5767H36.068L34.6793 76.7816L29.7197 84.8351L24.7601 76.7816L23.3714 85.5767H21.9827Z" fill="#252342"/>
<path d="M46.9438 83.9707C46.5852 84.554 46.0781 85.0315 45.4743 85.3543C44.8705 85.6772 44.1917 85.8338 43.5075 85.8081C42.8745 85.8176 42.2463 85.6967 41.662 85.453C41.0777 85.2092 40.5499 84.8477 40.1113 84.3911C39.6553 83.9521 39.2942 83.4242 39.0504 82.84C38.8067 82.2558 38.6855 81.6278 38.6943 80.9949C38.6858 80.3624 38.8072 79.7348 39.0509 79.1511C39.2946 78.5673 39.6556 78.0398 40.1113 77.6011C40.5503 77.145 41.0782 76.7839 41.6624 76.5402C42.2466 76.2964 42.8746 76.1752 43.5075 76.1841C44.1917 76.1584 44.8705 76.315 45.4743 76.6378C46.0781 76.9607 46.5852 77.4382 46.9438 78.0215V76.4249H48.316V85.5767H46.9438V83.9707ZM46.9438 80.9925C46.9422 80.3146 46.7397 79.6524 46.3619 79.0895C45.9841 78.5266 45.448 78.0884 44.8212 77.8301C44.1944 77.5718 43.5051 77.5051 42.8404 77.6383C42.1758 77.7716 41.5655 78.0989 41.0867 78.5789C40.7612 78.8913 40.5036 79.2676 40.3301 79.6841C40.1566 80.1006 40.0708 80.5485 40.0783 80.9996C40.0711 81.4522 40.1569 81.9013 40.3304 82.3194C40.5038 82.7374 40.7613 83.1154 41.0867 83.4299C41.4048 83.7487 41.7827 84.0017 42.1987 84.1743C42.6147 84.3469 43.0607 84.4357 43.5111 84.4357C43.9614 84.4357 44.4074 84.3469 44.8234 84.1743C45.2394 84.0017 45.6173 83.7487 45.9354 83.4299C46.2597 83.1165 46.5164 82.74 46.6899 82.3237C46.8633 81.9074 46.9497 81.46 46.9438 81.0091V80.9925Z" fill="#252342"/>
<path d="M52.6167 73.6783V76.425H54.2226V77.7547H52.6167V85.5768H51.2445V77.7547H49.6479V76.425H51.2445V73.6783H52.6167Z" fill="#252342"/>
<path d="M61.8954 78.0145C61.3779 77.7209 60.7923 77.5686 60.1973 77.5729C59.2891 77.5747 58.4185 77.9364 57.7763 78.5786C57.134 79.2209 56.7723 80.0914 56.7705 80.9997C56.763 81.4521 56.8484 81.9012 57.0215 82.3192C57.1945 82.7372 57.4515 83.1153 57.7766 83.43C58.0902 83.7538 58.4667 84.0102 58.883 84.1832C59.2993 84.3562 59.7466 84.4422 60.1973 84.4361C60.7923 84.443 61.3784 84.2914 61.8954 83.9968C62.4137 83.7054 62.8468 83.2837 63.1519 82.7734L64.3327 83.4819C63.9052 84.1951 63.3007 84.7857 62.5779 85.1966C61.855 85.6074 61.0383 85.8246 60.2068 85.8271C59.5742 85.8363 58.9464 85.7153 58.3625 85.4715C57.7787 85.2277 57.2512 84.8664 56.813 84.4101C56.357 83.971 55.996 83.4431 55.7523 82.8589C55.5085 82.2748 55.3873 81.6468 55.3959 81.0139C55.3876 80.3814 55.509 79.7539 55.7528 79.1701C55.9965 78.5864 56.3573 78.0589 56.813 77.6201C57.2517 77.1643 57.7792 76.8034 58.363 76.5597C58.9467 76.3159 59.5743 76.1946 60.2068 76.2031C61.0381 76.202 61.8555 76.417 62.5788 76.8269C63.302 77.2367 63.9064 77.8275 64.3327 78.5412L63.1519 79.2497C62.8497 78.734 62.4162 78.3078 61.8954 78.0145Z" fill="#252342"/>
<path d="M67.5191 77.8232C67.8916 77.3081 68.3838 76.8915 68.9533 76.6092C69.5227 76.3269 70.1524 76.1875 70.7878 76.203C71.4036 76.1909 72.015 76.3082 72.5826 76.5475C73.1501 76.7867 73.6611 77.1425 74.0824 77.5917C74.5205 78.0431 74.8645 78.577 75.0944 79.1624C75.3243 79.7479 75.4355 80.3732 75.4215 81.0021V85.5768H74.0493V80.9997C74.0621 80.5485 73.9852 80.0993 73.823 79.6781C73.6608 79.2569 73.4167 78.872 73.1046 78.5459C72.8095 78.2301 72.4509 77.9801 72.0525 77.8124C71.654 77.6448 71.2247 77.5631 70.7925 77.5728C70.359 77.5636 69.9284 77.6454 69.5285 77.813C69.1285 77.9806 68.7683 78.2303 68.4709 78.5459C68.1592 78.8723 67.9153 79.2571 67.7531 79.6783C67.591 80.0995 67.5139 80.5486 67.5262 80.9997V85.5768H66.147V73.6783H67.5215L67.5191 77.8232Z" fill="#252342"/>
<path d="M77.3771 76.425H78.7517V77.5303C79.0361 77.1063 79.4239 76.7617 79.8785 76.5291C80.333 76.2965 80.8393 76.1834 81.3496 76.2006C82.5997 76.2006 83.5814 76.647 84.2946 77.5397C84.4257 77.7044 84.5426 77.8798 84.6442 78.064C84.7515 77.8811 84.8714 77.7059 85.0032 77.5397C85.7211 76.6486 86.7013 76.203 87.9435 76.203C89.1858 76.203 90.1675 76.6494 90.8886 77.5421C91.583 78.4144 91.9301 79.5677 91.9301 81.002V85.5767H90.558V80.9997C90.558 79.8755 90.3139 79.0095 89.8258 78.4018C89.5977 78.1257 89.3078 77.9073 88.9795 77.7641C88.6513 77.6209 88.294 77.557 87.9364 77.5775C87.5817 77.5573 87.2272 77.6215 86.9021 77.7648C86.577 77.9081 86.2904 78.1263 86.0659 78.4018C85.5763 79.0111 85.3322 79.8771 85.3338 80.9997V85.5767H83.9593V80.9997C83.9593 79.8755 83.7152 79.0095 83.2271 78.4018C82.9993 78.1254 82.7094 77.9068 82.3811 77.7636C82.0528 77.6203 81.6953 77.5566 81.3378 77.5775C80.983 77.5573 80.6286 77.6215 80.3034 77.7648C79.9783 77.9081 79.6917 78.1263 79.4673 78.4018C78.9792 79.0111 78.7351 79.8771 78.7351 80.9997V85.5767H77.3606L77.3771 76.425Z" fill="#252342"/>
<path d="M101.83 83.9708C101.472 84.5544 100.965 85.0322 100.361 85.3551C99.757 85.678 99.0781 85.8344 98.3938 85.8082C97.7612 85.8174 97.1334 85.6964 96.5496 85.4526C95.9657 85.2088 95.4383 84.8475 95 84.3912C94.544 83.9521 94.183 83.4242 93.9393 82.84C93.6956 82.2559 93.5743 81.6279 93.583 80.995C93.5746 80.3625 93.696 79.735 93.9398 79.1512C94.1835 78.5675 94.5443 78.04 95 77.6012C95.4387 77.1454 95.9662 76.7845 96.55 76.5408C97.1337 76.297 97.7613 76.1757 98.3938 76.1842C99.0781 76.158 99.757 76.3144 100.361 76.6373C100.965 76.9602 101.472 77.438 101.83 78.0216V76.4251H103.202V85.5768H101.83V83.9708ZM101.83 80.9926C101.837 80.5428 101.751 80.0964 101.578 79.6811C101.405 79.2659 101.148 78.8907 100.824 78.579C100.345 78.0973 99.7333 77.7687 99.0672 77.635C98.401 77.5012 97.7101 77.5681 97.082 77.8274C96.454 78.0867 95.917 78.5266 95.5392 79.0913C95.1614 79.6561 94.9598 80.3203 94.9598 80.9997C94.9524 81.4521 95.0378 81.9012 95.2108 82.3192C95.3839 82.7372 95.6409 83.1153 95.9659 83.43C96.4456 83.9092 97.0564 84.2356 97.7214 84.368C98.3863 84.5004 99.0756 84.4328 99.7022 84.1738C100.329 83.9149 100.865 83.4761 101.242 82.9128C101.62 82.3496 101.822 81.6872 101.823 81.0092L101.83 80.9926Z" fill="#252342"/>
<path d="M106.74 73.6783V80.4919L111.964 76.425H114.203L110.075 79.6441C111.194 79.6236 112.101 79.959 112.795 80.6502C113.206 81.0481 113.53 81.5258 113.749 82.0538C113.968 82.5817 114.077 83.1489 114.068 83.7204V85.5768H112.694V83.7204C112.7 83.3288 112.625 82.9401 112.476 82.5783C112.326 82.2164 112.103 81.889 111.822 81.6161C111.156 80.9501 110.141 80.6313 108.776 80.6596L106.747 82.2325V85.5768H105.373V73.6783H106.74Z" fill="#252342"/>
<path d="M123.046 85.1776C122.329 85.5934 121.514 85.811 120.684 85.8082C120.052 85.8174 119.424 85.6963 118.84 85.4526C118.256 85.2088 117.729 84.8475 117.291 84.3912C116.837 83.9512 116.478 83.4228 116.236 82.8387C115.994 82.2545 115.875 81.6271 115.885 80.995C115.875 80.3633 115.995 79.7363 116.237 79.1526C116.478 78.5689 116.837 78.0409 117.291 77.6012C117.729 77.1454 118.257 76.7845 118.841 76.5407C119.424 76.297 120.052 76.1756 120.684 76.1841C121.516 76.1836 122.333 76.3988 123.057 76.8086C123.781 77.2184 124.386 77.8088 124.813 78.5222L125.169 79.1198L118.084 83.2127C118.141 83.283 118.202 83.35 118.266 83.4134C118.58 83.7373 118.956 83.9936 119.372 84.1666C119.789 84.3396 120.236 84.4257 120.687 84.4195C121.283 84.4239 121.869 84.269 122.385 83.9708C122.903 83.6794 123.336 83.2577 123.641 82.7474L124.822 83.4559C124.395 84.1784 123.782 84.773 123.046 85.1776ZM117.397 82.0318L123.204 78.6781C122.959 78.4163 122.675 78.1926 122.364 78.0145C121.846 77.7206 121.261 77.5683 120.666 77.5728C119.757 77.5747 118.887 77.9364 118.244 78.5786C117.602 79.2209 117.241 80.0914 117.239 80.9997C117.237 81.3499 117.291 81.6981 117.397 82.0318Z" fill="#252342"/>
<path d="M133.265 78.5034C132.981 78.2061 132.639 77.9696 132.261 77.808C131.882 77.6464 131.475 77.5631 131.064 77.5631C130.653 77.5631 130.245 77.6464 129.867 77.808C129.489 77.9696 129.147 78.2061 128.863 78.5034C128.251 79.1846 127.928 80.0775 127.963 80.9926V85.5767H126.591V76.425H127.963V77.7476C128.31 77.2511 128.777 76.8496 129.319 76.5798C129.862 76.31 130.463 76.1804 131.069 76.203C131.672 76.1878 132.271 76.3034 132.825 76.5419C133.379 76.7804 133.875 77.1362 134.278 77.5846C134.605 77.934 134.875 78.3325 135.079 78.7655L133.879 79.4551C133.73 79.1051 133.523 78.7832 133.265 78.5034Z" fill="#252342"/>
<path d="M45.4081 33.8093C45.7627 31.8476 47.9818 32.0049 49.4974 31.9163C49.5231 37.2952 49.5117 42.6799 49.4974 48.056C47.9075 48.0131 45.5225 47.8816 45.371 45.8055C45.2537 41.8106 45.1765 37.7928 45.4081 33.8093Z" fill="#252342"/>
<path d="M105.701 31.9106C107.159 32.0479 109.387 31.8106 109.77 33.7151C109.947 37.9244 109.984 42.171 109.744 46.3775C109.147 48.119 107.139 47.9446 105.664 47.976C105.701 42.6114 105.638 37.2639 105.701 31.9106Z" fill="#252342"/>
<path d="M75.3825 54.6732C68.5194 54.3872 61.6563 53.0575 55.265 50.4867C55.348 43.4291 55.2908 36.3716 55.2965 29.3255C60.6726 27.2551 66.3375 26.0769 72.0425 25.402C72.1769 25.402 72.3284 25.3706 72.4685 25.3477C73.4352 25.2253 74.4081 25.1584 75.3825 25.1475V21.3042C67.793 21.5244 60.7641 23.2888 53.575 25.6594C52.5055 26.0254 51.1386 26.6832 51.3416 28.0272C51.273 35.6081 51.3416 43.1832 51.3044 50.7726C51.3273 51.8164 51.1786 53.3006 52.4655 53.6723C59.7032 56.7721 67.5242 58.3621 75.3825 58.7138V54.6732Z" fill="#252342"/>
<path d="M104.071 28.0272C104.274 26.6746 102.907 26.0026 101.84 25.6509C96.858 23.8018 91.6929 22.4894 86.4324 21.736C84.929 21.5044 83.4121 21.3707 81.8913 21.3357C81.8133 21.33 81.7349 21.33 81.6569 21.3357C81.6111 21.1927 80.6245 21.1613 79.4692 21.1756V25.2162C82.5948 25.3706 85.4516 25.688 86.2208 25.7881C90.967 26.4539 95.6263 27.6362 100.116 29.3141C100.116 36.3716 100.064 43.4292 100.147 50.4753C93.5701 53.1147 86.5325 54.4387 79.4692 54.6847V58.7368C87.5162 58.4508 95.5375 56.8408 102.947 53.6695C104.236 53.2977 104.091 51.8136 104.111 50.7698C104.059 43.2004 104.142 35.6167 104.071 28.0272Z" fill="#252342"/>
<path d="M67.1329 43.6866C69.1623 43.6866 70.8075 42.0414 70.8075 40.012C70.8075 37.9825 69.1623 36.3373 67.1329 36.3373C65.1034 36.3373 63.4583 37.9825 63.4583 40.012C63.4583 42.0414 65.1034 43.6866 67.1329 43.6866Z" fill="#252342"/>
<path d="M88.2222 43.6866C90.2517 43.6866 91.8968 42.0414 91.8968 40.012C91.8968 37.9825 90.2517 36.3373 88.2222 36.3373C86.1928 36.3373 84.5476 37.9825 84.5476 40.012C84.5476 42.0414 86.1928 43.6866 88.2222 43.6866Z" fill="#252342"/>
</svg>
