<svg width="46" height="46" viewBox="0 0 46 46" fill="none" xmlns="http://www.w3.org/2000/svg">
<g clip-path="url(#clip0)">
<path d="M10.6737 19.8557L6.35681 31.3704V31.3713C7.41319 35.5915 9.73512 39.3223 13.022 42.1363L18.4384 40.1053C12.6853 34.9525 9.84577 27.3733 10.6737 19.8557Z" fill="#FF4100"/>
<path d="M4.89528 35.2681L1.5864 44.0909C1.19091 45.1447 2.22181 46.187 3.28346 45.788L10.2642 43.1708C7.92275 40.8982 6.10643 38.19 4.89528 35.2681Z" fill="#43605E"/>
<path d="M19.9282 18.7816L15.0075 13.8609C11.0178 22.8606 13.7453 33.1471 21.2728 39.0427L26.5248 37.0732C21.9123 32.3098 19.4175 25.661 19.9282 18.7816Z" fill="#43605E"/>
<path d="M22.5023 21.3559C22.7045 26.9498 25.1406 32.2361 29.2625 36.0459H29.2633L33.1127 34.6028C34.0118 34.2653 34.2579 33.1114 33.582 32.4356L22.5023 21.3559Z" fill="#43605E"/>
<path d="M32.1308 25.4974C32.6457 26.0123 33.4803 26.0123 33.9951 25.4974C38.9547 20.5379 43.7839 22.0712 43.8321 22.0872C44.5228 22.3174 45.2694 21.9441 45.4997 21.2534C45.73 20.5629 45.3566 19.8162 44.6659 19.5859C44.4059 19.4993 38.2299 17.534 32.1309 23.6331C31.616 24.1479 31.6159 24.9827 32.1308 25.4974Z" fill="#43605E"/>
<path d="M23.7414 15.2434C29.8406 9.14501 27.8746 2.96843 27.7885 2.70829C27.5583 2.01751 26.8112 1.64488 26.1205 1.87514C25.4306 2.1054 25.057 2.85155 25.2873 3.54232C25.3031 3.59066 26.8367 8.41996 21.8765 13.3793C21.3649 13.8909 21.3597 14.725 21.8765 15.2434C22.394 15.7608 23.228 15.7568 23.7414 15.2434Z" fill="#43605E"/>
<path d="M26.5376 18.0402C26.0228 18.555 26.0228 19.3897 26.5376 19.9045C27.0477 20.4147 27.8765 20.4213 28.3941 19.9123C29.0751 19.573 31.1889 20.8457 32.3637 19.6714C33.5258 18.5092 32.2911 16.4384 32.5995 15.7126C33.3262 15.4034 35.3963 16.6388 36.5584 15.4767C37.7207 14.3146 36.486 12.2437 36.7943 11.5179C37.5221 11.2086 39.591 12.4441 40.7531 11.282C41.9155 10.1198 40.6807 8.04894 40.9891 7.3231C41.7126 7.01541 43.7867 8.24809 44.9481 7.08713C46.1223 5.91272 44.8519 3.79512 45.1888 3.11761C45.6959 2.60225 45.6932 1.77341 45.181 1.26112C44.6662 0.746292 43.8315 0.746292 43.3167 1.26112C42.2776 2.30019 42.4809 3.76709 42.6766 4.81582C41.6279 4.6201 40.161 4.41682 39.122 5.4558C38.0829 6.49487 38.2862 7.96176 38.4819 9.0105C37.4332 8.81486 35.9662 8.61141 34.9272 9.65056C33.8882 10.6896 34.0915 12.1565 34.2872 13.2053C33.2383 13.0095 31.7715 12.8062 30.7325 13.8452C29.6935 14.8843 29.8968 16.3512 30.0925 17.3999C29.0437 17.2044 27.5766 17.0011 26.5376 18.0402Z" fill="#FF4100"/>
<path d="M33.9952 6.85413C34.51 6.3393 34.51 5.50465 33.9952 4.98982C33.4804 4.47499 32.6457 4.47499 32.1309 4.98982C31.616 5.50465 31.616 6.3393 32.1309 6.85413C32.6457 7.36896 33.4804 7.36896 33.9952 6.85413Z" fill="#FF4100"/>
<path d="M42.3845 16.5619C43.1126 16.5619 43.7028 15.9717 43.7028 15.2437C43.7028 14.5156 43.1126 13.9254 42.3845 13.9254C41.6564 13.9254 41.0662 14.5156 41.0662 15.2437C41.0662 15.9717 41.6564 16.5619 42.3845 16.5619Z" fill="#FF4100"/>
<path d="M39.588 27.3618C39.0731 27.8767 39.0731 28.7113 39.588 29.2261C40.1028 29.741 40.9374 29.741 41.4523 29.2261C41.9671 28.7113 41.9671 27.8767 41.4523 27.3618C40.9375 26.847 40.1028 26.847 39.588 27.3618Z" fill="#FF4100"/>
<path d="M20.9446 8.71847C21.4595 8.20364 21.4595 7.36899 20.9446 6.85416C20.4298 6.33932 19.5952 6.33932 19.0803 6.85416C18.5655 7.3689 18.5655 8.20364 19.0803 8.71847C19.5952 9.2333 20.4299 9.2333 20.9446 8.71847Z" fill="#FF4100"/>
</g>
<defs>
<clipPath id="clip0">
<rect width="45" height="45" fill="white" transform="translate(0.5 0.875)"/>
</clipPath>
</defs>
</svg>
