<svg width="181" height="442" viewBox="0 0 181 442" fill="none" xmlns="http://www.w3.org/2000/svg">
<path d="M276.721 411.151C325.443 372.402 306.751 296.608 317.686 220.686C319.346 216.401 317.834 203.055 298.506 183.953C274.346 160.076 280.66 57.5513 266.237 17.9267C251.814 -21.6979 161.783 18.4053 137.673 29.2356C113.563 40.0659 28.6186 105.519 9.89188 127.975C-8.83478 150.432 2.17178 183.714 20.6909 193.193C39.21 202.673 64.8782 202.536 101.773 226.377C138.668 250.219 122.965 360.903 161.85 408.042C200.735 455.181 227.999 449.9 276.721 411.151Z" fill="url(#paint0_linear)"/>
<defs>
<linearGradient id="paint0_linear" x1="143.703" y1="291.66" x2="282.484" y2="72.1734" gradientUnits="userSpaceOnUse">
<stop stop-color="#FF8961"/>
<stop offset="1" stop-color="#FF4100"/>
</linearGradient>
</defs>
</svg>
