<svg width="167" height="482" viewBox="0 0 167 482" fill="none" xmlns="http://www.w3.org/2000/svg">
<path d="M-131.254 34.3405C-180.266 76.5116 -157.826 154.425 -166.129 233.66C-167.679 238.174 -165.574 251.964 -144.748 271.014C-118.716 294.826 -204.633 428.658 -188.074 469.204C-171.516 509.75 3.79326 437.344 28.3814 425.136C52.9695 412.929 138.504 341.589 157.039 317.532C175.573 293.474 162.815 259.373 143.214 250.278C123.614 241.182 96.9791 242.355 57.731 219.091C18.483 195.827 30.3389 80.3219 -11.9096 32.9586C-54.1581 -14.4047 -82.2424 -7.83073 -131.254 34.3405Z" fill="url(#paint0_linear)"/>
<defs>
<linearGradient id="paint0_linear" x1="132.815" y1="273.041" x2="-278.022" y2="275.462" gradientUnits="userSpaceOnUse">
<stop stop-color="#FF8961"/>
<stop offset="1" stop-color="#FF4100"/>
</linearGradient>
</defs>
</svg>
