<svg width="40" height="41" viewBox="0 0 40 41" fill="none" xmlns="http://www.w3.org/2000/svg">
<g clip-path="url(#clip0)">
<path d="M10.0436 11.3021L6.62285 11.5698C5.671 11.6443 4.82326 12.1497 4.29686 12.9563L0.351824 19.001C-0.0474073 19.6127 -0.110874 20.3782 0.181937 21.0489C0.474824 21.7195 1.07672 22.1868 1.79197 22.2991L4.92405 22.7905C5.65673 18.8514 7.41067 14.9221 10.0436 11.3021Z" fill="#43605E"/>
<path d="M17.481 35.5116L17.9661 38.6846C18.0769 39.4092 18.5382 40.019 19.2001 40.3156C19.4755 40.439 19.767 40.5 20.057 40.5C20.4644 40.5 20.869 40.3797 21.2216 40.1435L27.1884 36.147C27.9847 35.6136 28.4835 34.7547 28.5569 33.7906L28.8212 30.3251C25.2478 32.9925 21.3692 34.7694 17.481 35.5116Z" fill="#43605E"/>
<path d="M16.3029 33.3122C16.4116 33.3122 16.521 33.3032 16.6301 33.2847C18.2591 33.0088 19.8292 32.544 21.3269 31.9355L8.45392 18.8942C7.85334 20.4115 7.39449 22.0021 7.12212 23.6525C7.01477 24.303 7.23016 24.9657 7.69047 25.4321L14.8734 32.709C15.2556 33.0961 15.7714 33.3122 16.3029 33.3122Z" fill="#43605E"/>
<path d="M36.3357 18.2345C39.4858 12.0647 39.6025 5.54473 39.4378 2.48694C39.3815 1.43921 38.5569 0.603905 37.5227 0.546797C37.0312 0.519609 36.4487 0.5 35.7922 0.5C32.4172 0.5 27.0768 1.01789 21.9783 3.68951C17.9265 5.81269 12.6134 10.4877 9.47876 16.6316C9.51578 16.6609 9.55194 16.692 9.58603 16.7265L23.467 30.7889C23.5011 30.8234 23.5317 30.86 23.5606 30.8975C29.6252 27.7218 34.2399 22.3393 36.3357 18.2345ZM22.9575 8.95618C25.2125 6.67175 28.8818 6.67151 31.1369 8.95618C32.2293 10.0628 32.8309 11.5343 32.8309 13.0994C32.8309 14.6644 32.2293 16.1359 31.1369 17.2425C30.0095 18.3846 28.5281 18.9558 27.0473 18.9559C25.5659 18.956 24.0852 18.3849 22.9575 17.2425C21.8651 16.1359 21.2634 14.6644 21.2634 13.0994C21.2634 11.5343 21.8651 10.0628 22.9575 8.95618Z" fill="#FF4100"/>
<path d="M24.5932 15.5852C25.9462 16.9559 28.1479 16.956 29.5009 15.5852C30.1563 14.9212 30.5173 14.0384 30.5173 13.0993C30.5173 12.1602 30.1563 11.2774 29.5009 10.6134C28.8244 9.92804 27.9357 9.58539 27.047 9.58539C26.1584 9.58539 25.2697 9.92804 24.5933 10.6134C23.9378 11.2774 23.5768 12.1602 23.5768 13.0993C23.5768 14.0384 23.9378 14.9212 24.5932 15.5852Z" fill="#43605E"/>
<path d="M1.1806 33.4638C1.47665 33.4638 1.7727 33.3494 1.9985 33.1205L5.77515 29.2945C6.2269 28.8368 6.2269 28.0948 5.77515 27.6372C5.32347 27.1795 4.59102 27.1795 4.13926 27.6372L0.362617 31.4632C-0.089134 31.9209 -0.089134 32.6628 0.362617 33.1205C0.588492 33.3493 0.884544 33.4638 1.1806 33.4638Z" fill="#FF4100"/>
<path d="M9.23588 31.1434C8.78421 30.6858 8.05175 30.6858 7.6 31.1434L0.339057 38.4993C-0.112694 38.9569 -0.112694 39.6989 0.339057 40.1565C0.564933 40.3854 0.860985 40.4997 1.15704 40.4997C1.45309 40.4997 1.74914 40.3854 1.97494 40.1565L9.23581 32.8007C9.68764 32.343 9.68763 31.6011 9.23588 31.1434Z" fill="#FF4100"/>
<path d="M11.0609 34.6497L7.28437 38.4757C6.83262 38.9334 6.83262 39.6753 7.28437 40.133C7.51024 40.3618 7.8063 40.4763 8.10227 40.4763C8.39825 40.4763 8.69437 40.3619 8.92017 40.133L12.6968 36.307C13.1486 35.8493 13.1486 35.1074 12.6968 34.6497C12.2451 34.192 11.5127 34.192 11.0609 34.6497Z" fill="#FF4100"/>
</g>
<defs>
<clipPath id="clip0">
<rect width="39.4839" height="40" fill="white" transform="translate(0 0.5)"/>
</clipPath>
</defs>
</svg>
