<svg width="46" height="46" viewBox="0 0 46 46" fill="none" xmlns="http://www.w3.org/2000/svg">
<path d="M22.9999 21.2315C21.818 21.2315 20.8564 22.193 20.8564 23.3749C20.8564 24.5569 21.818 25.5184 22.9999 25.5184C24.1819 25.5184 25.1435 24.5569 25.1435 23.3749C25.1435 22.193 24.1819 21.2315 22.9999 21.2315Z" fill="#FF4100"/>
<path d="M23 14.4461C18.0766 14.4461 14.071 18.4516 14.071 23.375C14.071 28.2985 18.0766 32.304 23 32.304C27.9235 32.304 31.929 28.2985 31.929 23.375C31.929 18.4516 27.9235 14.4461 23 14.4461ZM23 28.1552C20.3642 28.1552 18.2198 26.0109 18.2198 23.375C18.2198 20.7392 20.3642 18.5948 23 18.5948C25.6359 18.5948 27.7803 20.7392 27.7803 23.375C27.7803 26.0109 25.6359 28.1552 23 28.1552Z" fill="#43605E"/>
<path d="M22.9999 7.66054C14.3349 7.66054 7.2854 14.7101 7.2854 23.375C7.2854 32.04 14.3349 39.0895 22.9999 39.0895C31.6649 39.0895 38.7144 32.04 38.7144 23.375C38.7144 14.7101 31.6649 7.66054 22.9999 7.66054ZM22.9999 34.9407C16.6225 34.9407 11.4342 29.7524 11.4342 23.375C11.4342 16.9977 16.6225 11.8093 22.9999 11.8093C29.3772 11.8093 34.5656 16.9977 34.5656 23.375C34.5656 29.7524 29.3772 34.9407 22.9999 34.9407Z" fill="#FF4100"/>
<path d="M38.91 7.46513C34.6602 3.21544 29.01 0.875 23 0.875C16.99 0.875 11.3398 3.21544 7.09013 7.46513C2.84044 11.7148 0.5 17.365 0.5 23.375C0.5 29.385 2.84044 35.0352 7.09013 39.2849C11.3398 43.5346 16.99 45.875 23 45.875C29.01 45.875 34.6602 43.5346 38.91 39.2849C43.1596 35.0352 45.5 29.385 45.5 23.375C45.5 17.365 43.1596 11.7148 38.91 7.46513ZM23 41.7262C12.8812 41.7262 4.64879 33.4938 4.64879 23.375C4.64879 13.2562 12.8812 5.02379 23 5.02379C33.1189 5.02379 41.3512 13.2562 41.3512 23.375C41.3512 33.4938 33.1189 41.7262 23 41.7262Z" fill="#43605E"/>
</svg>
