<svg width="85" height="31" viewBox="0 0 85 31" fill="none" xmlns="http://www.w3.org/2000/svg">
<path d="M12.1033 7.49883V7.46187C12.1033 3.7847 9.46549 1.16541 4.91522 1.16541H0V13.9062H4.8413C9.42853 13.9062 12.1033 11.176 12.1033 7.49883ZM3.52935 4.29747H4.96603C7.07717 4.29747 8.4769 5.48008 8.4769 7.51731V7.55426C8.4769 9.60997 7.07717 10.7741 4.96603 10.7741H3.52935V4.29747Z" fill="#FF4100"/>
<path d="M17.5497 1.16541H14.0018V13.9062H17.5497V1.16541Z" fill="#FF4100"/>
<path d="M25.2875 5.96971C23.5228 5.56781 23.0839 5.31373 23.0839 4.73167V4.69471C23.0839 4.24199 23.5043 3.87705 24.3589 3.87705C25.4861 3.87705 26.7611 4.31591 27.9252 5.13357L29.6899 2.639C28.304 1.53031 26.6133 0.948242 24.4467 0.948242C21.3886 0.948242 19.513 2.65748 19.513 5.02732V5.06427C19.513 7.68357 21.6057 8.45042 24.3174 9.06944C26.0451 9.47134 26.4655 9.76237 26.4655 10.289V10.326C26.4655 10.8711 25.9573 11.1991 25.0103 11.1991C23.5367 11.1991 22.1323 10.6724 20.8804 9.66998L18.9125 12.0167C20.4785 13.4164 22.6266 14.1279 24.881 14.1279C27.9761 14.1279 30.0318 12.5803 30.0318 9.97949V9.94254C30.0364 7.55422 28.2163 6.60721 25.2875 5.96971Z" fill="#FF4100"/>
<path d="M37.9959 10.9405C36.2128 10.9405 34.9563 9.44833 34.9563 7.53583V7.49888C34.9563 5.64181 36.2128 4.13121 37.9959 4.13121C39.2155 4.13121 40.0516 4.71328 40.7815 5.62333L43.4378 3.56763C42.3106 2.00159 40.6337 0.911377 38.0329 0.911377C34.1756 0.911377 31.316 3.8217 31.316 7.53583V7.57279C31.316 11.3793 34.2448 14.1603 37.8897 14.1603C40.7122 14.1603 42.3291 12.9407 43.5302 11.2823L40.8739 9.38828C40.1071 10.3214 39.3217 10.9405 37.9959 10.9405Z" fill="#FF4100"/>
<path d="M51.0832 14.1603C55.0144 14.1603 57.9663 11.1945 57.9663 7.53583V7.49888C57.9663 3.84018 55.0514 0.911377 51.1201 0.911377C47.1889 0.911377 44.2416 3.87714 44.2416 7.53583V7.57279C44.2416 11.2315 47.1519 14.1603 51.0832 14.1603ZM47.8633 7.49888C47.8633 5.66029 49.1568 4.09426 51.0832 4.09426C53.0326 4.09426 54.3584 5.69725 54.3584 7.53583V7.57279C54.3584 9.41138 53.0649 10.9774 51.1201 10.9774C49.1891 10.9774 47.8633 9.37442 47.8633 7.53583V7.49888Z" fill="#FF4100"/>
<path d="M77.8119 1.16541H72.8967V13.9062H77.738C82.3253 13.9062 85 11.176 85 7.49883V7.46187C85 3.7847 82.3622 1.16541 77.8119 1.16541ZM81.3783 7.55426C81.3783 9.60997 79.9785 10.7741 77.8674 10.7741H76.4307V4.29747H77.8674C79.9785 4.29747 81.3783 5.48008 81.3783 7.51731V7.55426Z" fill="#FF4100"/>
<path d="M8.57852 17.0012L3.15515 29.8344H6.86928L7.77934 27.5569H12.6946L13.6231 29.8344H17.4111L11.9831 17.0012H8.57852ZM8.81412 24.8129L10.2508 21.1912L11.669 24.8129H8.81412Z" fill="#FF4100"/>
<path d="M23.9987 24.9746H26.5117V26.5222C25.9851 26.8687 25.3291 27.0488 24.4745 27.0488C22.4557 27.0488 21.0144 25.5752 21.0144 23.5195V23.4825C21.0144 21.5331 22.4326 19.9855 24.2712 19.9855C25.5277 19.9855 26.4378 20.4244 27.3478 21.1866L29.422 18.692C28.0731 17.5279 26.4932 16.835 24.2527 16.835C20.303 16.835 17.3881 19.7453 17.3881 23.4594V23.4964C17.3881 27.3537 20.3538 30.0839 24.322 30.0839C26.6318 30.0839 28.5074 29.2293 29.8563 28.1159V22.3923H23.9987V24.9746Z" fill="#FF4100"/>
<path d="M35.3212 24.813H41.4376V22.0274H35.3212V20.0965H42.0751V17.0938H31.8289V29.8345H42.1674V26.8318H35.3212V24.813Z" fill="#FF4100"/>
<path d="M52.506 23.8291L47.2674 17.0938H43.969V29.8345H47.466V22.8451L52.9079 29.8345H56.003V17.0938H52.506V23.8291Z" fill="#FF4100"/>
<path d="M64.5077 26.8687C62.7245 26.8687 61.468 25.3766 61.468 23.4641V23.4271C61.468 21.57 62.7245 20.0594 64.5077 20.0594C65.7272 20.0594 66.5634 20.6415 67.2933 21.5516L69.9495 19.4958C68.8223 17.9298 67.1454 16.8396 64.5446 16.8396C60.6873 16.8396 57.8278 19.7499 57.8278 23.4641V23.501C57.8278 27.3075 60.7566 30.0885 64.3968 30.0885C67.2193 30.0885 68.8362 28.8689 70.0419 27.2105L67.3856 25.3165C66.6188 26.2496 65.8335 26.8687 64.5077 26.8687Z" fill="#FF4100"/>
<path d="M76.7217 21.644L68.4896 9.46678C70.0741 8.79233 71.1089 7.49885 71.1089 5.55401V5.51706C71.1089 4.26053 70.7255 3.27657 69.9817 2.55129C69.1271 1.6782 67.7782 1.17004 65.8334 1.17004H59.8094V13.9108H63.3434V10.0488H64.854H64.891L74.8738 25.0671V29.8344H78.4217V25.0116L83.263 17.0937H79.3133L76.7217 21.644ZM63.3388 7.28173V4.22358H65.6486C66.8312 4.22358 67.5611 4.73173 67.5611 5.73417V5.77113C67.5611 6.69966 66.8681 7.28173 65.6671 7.28173H63.3388Z" fill="#FF4100"/>
</svg>
