<svg width="46" height="46" viewBox="0 0 46 46" fill="none" xmlns="http://www.w3.org/2000/svg">
<g clip-path="url(#clip0)">
<path d="M23 19.6396C25.6697 19.6396 27.834 17.4754 27.834 14.8057C27.834 12.1359 25.6697 9.97168 23 9.97168C20.3303 9.97168 18.166 12.1359 18.166 14.8057C18.166 17.4754 20.3303 19.6396 23 19.6396Z" fill="#43605E"/>
<path d="M37.9414 16.5635C37.9414 14.1403 35.97 12.1689 33.5468 12.1689C31.1931 12.1689 29.2657 14.0287 29.1576 16.3561C30.7178 17.4806 31.9825 19.0404 32.7462 20.8851C33.0063 20.9325 33.2735 20.958 33.5468 20.958C35.9663 20.958 37.9414 18.9898 37.9414 16.5635Z" fill="#43605E"/>
<path d="M16.8424 16.3561C16.7343 14.0287 14.8068 12.1689 12.4531 12.1689C10.03 12.1689 8.05859 14.1403 8.05859 16.5635C8.05859 19.2862 10.5287 21.3823 13.2538 20.8851C14.0036 19.0739 15.2481 17.5051 16.8424 16.3561Z" fill="#43605E"/>
<path d="M6.78594 20.7224C6.78594 20.7215 6.78506 20.7215 6.78418 20.7207C5.39814 22.1454 4.54297 24.0904 4.54297 26.2314V32.8232C4.54297 33.5509 5.13359 34.1415 5.86133 34.1415H12.4531V24.913C12.4531 24.4666 12.4813 24.0262 12.5357 23.5938C12.5085 23.5947 12.4804 23.5947 12.4531 23.5947C10.2269 23.5947 8.10869 22.5207 6.78594 20.7224Z" fill="#43605E"/>
<path d="M40.1386 34.1415C40.8664 34.1415 41.457 33.5509 41.457 32.8232V26.2314C41.457 24.0904 40.6018 22.1454 39.2158 20.7207C39.2149 20.7207 39.2149 20.7215 39.2149 20.7215C37.8913 22.5207 35.7731 23.5947 33.5469 23.5947C33.5196 23.5947 33.4915 23.5947 33.4642 23.5938C33.5187 24.0262 33.5469 24.4666 33.5469 24.913V34.1415H40.1386Z" fill="#43605E"/>
<path d="M23 22.2764C20.6691 22.2764 18.5844 21.2041 17.2133 19.5263C15.8958 20.9387 15.0898 22.8336 15.0898 24.9131V35.46C15.0898 36.1878 15.6805 36.7784 16.4082 36.7784H29.5918C30.3195 36.7784 30.9102 36.1878 30.9102 35.46V24.9131C30.9102 22.8336 30.1042 20.9387 28.7867 19.5263C27.4156 21.2041 25.3309 22.2764 23 22.2764Z" fill="#FF4100"/>
<path d="M44.1816 33.4824C43.4536 33.4824 42.8633 34.0727 42.8633 34.8008V41.4805H36.1836C35.4555 41.4805 34.8652 42.0707 34.8652 42.7988C34.8652 43.5269 35.4555 44.1172 36.1836 44.1172H44.1816C44.9097 44.1172 45.5 43.5269 45.5 42.7988V34.8008C45.5 34.0727 44.9097 33.4824 44.1816 33.4824Z" fill="#43605E"/>
<path d="M9.81641 41.4805H3.13672V34.8008C3.13672 34.0727 2.54645 33.4824 1.81836 33.4824C1.09027 33.4824 0.5 34.0727 0.5 34.8008V42.7988C0.5 43.5269 1.09027 44.1172 1.81836 44.1172H9.81641C10.5445 44.1172 11.1348 43.5269 11.1348 42.7988C11.1348 42.0707 10.5445 41.4805 9.81641 41.4805Z" fill="#43605E"/>
<path d="M1.81836 13.2676C2.54645 13.2676 3.13672 12.6773 3.13672 11.9492V5.26953H9.81641C10.5445 5.26953 11.1348 4.67926 11.1348 3.95117C11.1348 3.22309 10.5445 2.63281 9.81641 2.63281H1.81836C1.09027 2.63281 0.5 3.22309 0.5 3.95117V11.9492C0.5 12.6773 1.09027 13.2676 1.81836 13.2676Z" fill="#43605E"/>
<path d="M44.1816 2.63281H36.0957C35.3676 2.63281 34.7773 3.22309 34.7773 3.95117C34.7773 4.67926 35.3676 5.26953 36.0957 5.26953H42.8633V11.9492C42.8633 12.6773 43.4536 13.2676 44.1816 13.2676C44.9097 13.2676 45.5 12.6773 45.5 11.9492V3.95117C45.5 3.22309 44.9097 2.63281 44.1816 2.63281Z" fill="#43605E"/>
</g>
<defs>
<clipPath id="clip0">
<rect width="45" height="45" fill="white" transform="translate(0.5 0.875)"/>
</clipPath>
</defs>
</svg>
