<svg width="44" height="42" viewBox="0 0 44 42" fill="none" xmlns="http://www.w3.org/2000/svg">
<path d="M40.0469 39.293H38.7578V35.6016C38.7578 34.9207 38.182 34.3711 37.4688 34.3711H33.6016V28.2188C33.6016 27.5379 33.0258 26.9883 32.3125 26.9883H11.6875C10.9742 26.9883 10.3984 27.5379 10.3984 28.2188V34.3711H6.53125C5.81797 34.3711 5.24219 34.9207 5.24219 35.6016V39.293H3.95312C3.23984 39.293 2.66406 39.8426 2.66406 40.5234C2.66406 41.2043 3.23984 41.7539 3.95312 41.7539H9.10938C9.82266 41.7539 10.3984 41.2043 10.3984 40.5234C10.3984 39.8426 9.82266 39.293 9.10938 39.293H7.82031V36.832H15.5547V39.293H14.2656C13.5523 39.293 12.9766 39.8426 12.9766 40.5234C12.9766 41.2043 13.5523 41.7539 14.2656 41.7539H19.4219C20.1352 41.7539 20.7109 41.2043 20.7109 40.5234C20.7109 39.8426 20.1352 39.293 19.4219 39.293H18.1328V35.6016C18.1328 34.9207 17.557 34.3711 16.8438 34.3711H12.9766V29.4492H31.0234V34.3711H27.1562C26.443 34.3711 25.8672 34.9207 25.8672 35.6016V39.293H24.5781C23.8648 39.293 23.2891 39.8426 23.2891 40.5234C23.2891 41.2043 23.8648 41.7539 24.5781 41.7539H29.7344C30.4477 41.7539 31.0234 41.2043 31.0234 40.5234C31.0234 39.8426 30.4477 39.293 29.7344 39.293H28.4453V36.832H36.1797V39.293H34.8906C34.1773 39.293 33.6016 39.8426 33.6016 40.5234C33.6016 41.2043 34.1773 41.7539 34.8906 41.7539H40.0469C40.7602 41.7539 41.3359 41.2043 41.3359 40.5234C41.3359 39.8426 40.7602 39.293 40.0469 39.293Z" fill="#43605E"/>
<path d="M34.8906 3.69958H31.0234V2.46912C31.0234 1.78826 30.4477 1.23865 29.7344 1.23865H14.2656C13.5523 1.23865 12.9766 1.78826 12.9766 2.46912V3.69958H9.10938C8.39609 3.69958 7.82031 4.24919 7.82031 4.93005V9.93396C7.82031 11.9683 9.55625 13.6254 11.6875 13.6254H13.2C13.6383 15.1511 14.7297 16.4554 16.268 17.1855C17.4195 17.7351 18.1328 18.8425 18.1328 20.0648C18.1328 21.9433 16.5344 23.5511 14.5664 23.5511H14.2656C13.5523 23.5511 12.9766 24.1007 12.9766 24.7816C12.9766 25.4625 13.5523 26.0121 14.2656 26.0121H29.7344C30.4477 26.0121 31.0234 25.4625 31.0234 24.7816C31.0234 24.1007 30.4477 23.5511 29.7344 23.5511H29.4336C27.4656 23.5511 25.8672 21.9433 25.8672 20.0648C25.8672 18.8343 26.5805 17.7351 27.732 17.1855C29.2703 16.4472 30.3617 15.1511 30.8 13.6254H32.3125C34.4438 13.6254 36.1797 11.9683 36.1797 9.93396V4.93005C36.1797 4.24919 35.6039 3.69958 34.8906 3.69958ZM12.9766 11.1644H11.6875C10.9742 11.1644 10.3984 10.6148 10.3984 9.93396V6.16052H12.9766V11.1644ZM23.2891 12.3949C23.2891 13.0758 22.7133 13.6254 22 13.6254C21.2867 13.6254 20.7109 13.0758 20.7109 12.3949V7.39099C20.7109 6.71013 21.2867 6.16052 22 6.16052C22.7133 6.16052 23.2891 6.71013 23.2891 7.39099V12.3949ZM33.6016 9.93396C33.6016 10.6148 33.0258 11.1644 32.3125 11.1644H31.0234V6.16052H33.6016V9.93396Z" fill="#FF4100"/>
</svg>
