<svg width="41" height="41" viewBox="0 0 41 41" fill="none" xmlns="http://www.w3.org/2000/svg">
<g clip-path="url(#clip0)">
<path d="M21.9723 36.1933C23.6338 36.1933 25.2072 37.0296 26.1797 38.4277C27.319 40.0628 28.6169 41 29.74 41C31.3981 41 31.8804 38.6833 32.0372 37.0131C32.2409 34.8572 31.9503 32.2119 31.2997 30.3986C29.9647 26.6862 27.7081 24.7438 26.1694 24.7438C25.7777 24.7438 25.4005 24.8643 25.0764 25.1003C23.7437 26.0716 22.6612 26.5044 21.5647 26.5044H18.9064C17.8099 26.5044 16.7274 26.0716 15.397 25.1015C15.0925 24.8789 14.7164 24.7449 14.3064 24.7449C12.7641 24.7449 10.5052 26.6873 9.17143 30.3985C8.52077 32.2118 8.23014 34.8572 8.4339 37.0131C8.58993 38.6757 9.07271 40.9999 10.7287 40.9999C11.853 40.9999 13.152 40.0627 14.2913 38.4276C15.265 37.0284 16.8373 36.1933 18.4988 36.1933H21.9723ZM23.7924 30.1077H26.1636V32.5099H23.7924V30.1077ZM16.6788 32.5099H14.3076V30.1077H16.6788V32.5099Z" fill="#FF4100"/>
<path d="M24.7455 8.1258C23.5761 4.54843 21.8545 2.40222 20.2356 2.40222C18.6203 2.40222 16.9023 4.53834 15.7331 8.10114C17.1452 8.28106 18.6287 8.40774 20.2356 8.40774C21.7867 8.40774 23.3023 8.30845 24.7455 8.1258Z" fill="#43605E"/>
<path d="M37.9595 16.8955C37.731 13.4097 36.5252 10.1182 34.6096 7.45099C32.8348 8.58892 30.4591 9.47565 27.7277 10.0527C28.1699 12.0978 28.4408 14.4541 28.5086 16.8955H37.9595Z" fill="#43605E"/>
<path d="M25.3824 10.4606C23.7418 10.6846 22.0161 10.8099 20.2356 10.8099C18.4413 10.8099 16.7164 10.6868 15.0881 10.4638C14.6726 12.3351 14.4035 14.5559 14.3329 16.8955H26.1383C26.0675 14.5546 25.7983 12.3327 25.3824 10.4606Z" fill="#43605E"/>
<path d="M2.5116 16.8955H11.9626C12.0304 14.4547 12.3013 12.0989 12.7431 10.0543C9.99332 9.46976 7.63776 8.56813 5.87366 7.43469C3.95116 10.105 2.7405 13.4025 2.5116 16.8955Z" fill="#43605E"/>
<path d="M33.0751 5.58369C29.8352 2.15102 25.2831 0 20.2355 0C23.1754 0 25.6648 2.99395 27.1294 7.72342C29.497 7.23537 31.551 6.50342 33.0751 5.58369Z" fill="#43605E"/>
<path d="M33.6313 29.9411C36.2111 26.963 37.7119 23.2671 37.9669 19.2977H28.492C28.457 20.5022 28.3712 21.6837 28.2325 22.8387C30.8358 24.0617 32.7003 27.0899 33.6313 29.9411Z" fill="#43605E"/>
<path d="M16.7852 23.1544C17.9373 23.9942 18.5242 24.1021 18.9063 24.1021H21.5647C21.9468 24.1021 22.5338 23.9942 23.6916 23.1497C24.3437 22.6759 25.105 22.4364 25.8975 22.3845C26.0142 21.3764 26.0886 20.3478 26.121 19.2977H14.35C14.3824 20.348 14.4568 21.3771 14.5735 22.3851C15.3699 22.4364 16.1347 22.6775 16.7852 23.1544Z" fill="#43605E"/>
<path d="M13.3468 7.70804C14.812 2.98779 17.2989 0 20.2356 0C15.1959 0 10.6497 2.14405 7.41071 5.56728C8.86418 6.4416 10.8852 7.19373 13.3468 7.70804Z" fill="#43605E"/>
<path d="M6.83914 29.9406C7.75901 27.1161 9.63037 24.0649 12.2386 22.8404C12.1 21.685 12.014 20.5028 11.979 19.2977H2.50409C2.75907 23.2667 4.25966 26.9625 6.83914 29.9406Z" fill="#43605E"/>
</g>
<defs>
<clipPath id="clip0">
<rect width="40.471" height="41" fill="white"/>
</clipPath>
</defs>
</svg>
